<?xml version="1.0" encoding="UTF-8"?>
<svg id="Layer_1" xmlns="http://www.w3.org/2000/svg" version="1.1" xmlns:xlink="http://www.w3.org/1999/xlink" viewBox="0 0 202.33 83.13">
  <!-- Generator: Adobe Illustrator 30.4.0, SVG Export Plug-In . SVG Version: 2.1.3 Build 135)  -->
  <defs>
    <style>
      .st0 {
        fill: #fff;
      }

      .st1 {
        clip-path: url(#clippath);
      }
    </style>
    <clipPath id="clippath">
      <path class="st0" d="M30.25,13.04h9.65l4.82,8.35-4.26,7.38-4.54-7.87c-.35-.6-1.33-.6-1.68,0l-5.1,8.84h-8.52l9.64-16.7ZM24.87,3.72h20.41l10.2,17.67-20.41,35.35-4.26-7.38,5.07-8.79c.17-.3.17-.67,0-.97l-5.08-8.89,4.26-7.38,4.54,7.87c.35.6,1.33.6,1.68,0l5.38-9.32c.17-.3.17-.67,0-.97l-5.38-9.32c-.17-.3-.49-.49-.84-.49h-10.77c-.35,0-.67.18-.84.49l-10.76,18.65c-.17.3-.17.67,0,.97.17.3.49.49.84.49h9.08l-4.26,7.38H4.46L24.87,3.72ZM24.31,1.77c-.35,0-.67.18-.84.49L1.94,39.55c-.09.15-.13.32-.13.49s.04.34.13.49c.17.3.49.49.84.49h21.53c.35,0,.67-.18.84-.49l4.54-7.86,4.24,7.42-5.07,8.79c-.17.3-.17.67,0,.97l5.38,9.32c.17.3.49.49.84.49s.67-.18.84-.49l21.53-37.29c.17-.3.17-.67,0-.97L46.68,2.26c-.17-.3-.49-.49-.84-.49h-21.53Z"/>
    </clipPath>
  </defs>
  <g>
    <path class="st0" d="M30.25,13.04h9.65l4.82,8.35-4.26,7.38-4.54-7.87c-.35-.6-1.33-.6-1.68,0l-5.1,8.84h-8.52l9.64-16.7ZM24.87,3.72h20.41l10.2,17.67-20.41,35.35-4.26-7.38,5.07-8.79c.17-.3.17-.67,0-.97l-5.08-8.89,4.26-7.38,4.54,7.87c.35.6,1.33.6,1.68,0l5.38-9.32c.17-.3.17-.67,0-.97l-5.38-9.32c-.17-.3-.49-.49-.84-.49h-10.77c-.35,0-.67.18-.84.49l-10.76,18.65c-.17.3-.17.67,0,.97.17.3.49.49.84.49h9.08l-4.26,7.38H4.46L24.87,3.72ZM24.31,1.77c-.35,0-.67.18-.84.49L1.94,39.55c-.09.15-.13.32-.13.49s.04.34.13.49c.17.3.49.49.84.49h21.53c.35,0,.67-.18.84-.49l4.54-7.86,4.24,7.42-5.07,8.79c-.17.3-.17.67,0,.97l5.38,9.32c.17.3.49.49.84.49s.67-.18.84-.49l21.53-37.29c.17-.3.17-.67,0-.97L46.68,2.26c-.17-.3-.49-.49-.84-.49h-21.53Z"/>
    <g class="st1">
      <rect class="st0" x="-9.3" y="-7.92" width="78.03" height="77.27" transform="translate(-11.74 41.09) rotate(-60)"/>
    </g>
  </g>
  <path class="st0" d="M67.75,40.44c-1.91,0-3.65-.71-4.96-2.02-1.83-1.83-1.83-3.73-1.83-7.85s0-6.02,1.83-7.85c1.31-1.31,3.05-2.02,4.96-2.02,3.49,0,6.08,2.13,6.73,5.78h-2.12c-.52-2.37-2.18-3.92-4.6-3.92-1.28,0-2.51.49-3.35,1.36-1.23,1.25-1.36,2.59-1.36,6.65s.14,5.39,1.36,6.65c.84.87,2.07,1.36,3.35,1.36,2.42,0,4.14-1.55,4.66-3.92h2.07c-.63,3.65-3.27,5.78-6.73,5.78"/>
  <path class="st0" d="M87.06,38.43c-1.31,1.31-3.02,2.02-4.96,2.02s-3.65-.71-4.96-2.02c-1.83-1.83-1.83-3.73-1.83-7.85s0-6.02,1.83-7.85c1.31-1.31,3.02-2.02,4.96-2.02s3.65.71,4.96,2.02c1.83,1.83,1.83,3.73,1.83,7.85s0,6.02-1.83,7.85M85.45,23.96c-.84-.87-2.07-1.39-3.35-1.39s-2.51.52-3.35,1.39c-1.23,1.25-1.36,2.56-1.36,6.62s.14,5.37,1.36,6.62c.84.87,2.07,1.39,3.35,1.39s2.51-.52,3.35-1.39c1.23-1.25,1.36-2.56,1.36-6.62s-.14-5.37-1.36-6.62"/>
  <polygon class="st0" points="103.13 40.28 92.83 24.73 92.83 40.28 90.76 40.28 90.76 20.89 92.72 20.89 103.02 36.39 103.02 20.89 105.09 20.89 105.09 40.28 103.13 40.28"/>
  <path class="st0" d="M113.75,40.44c-1.91,0-3.65-.71-4.96-2.02-1.83-1.83-1.83-3.73-1.83-7.85s0-6.02,1.83-7.85c1.31-1.31,3.05-2.02,4.96-2.02,3.49,0,6.08,2.13,6.73,5.78h-2.12c-.52-2.37-2.18-3.92-4.6-3.92-1.28,0-2.51.49-3.35,1.36-1.23,1.25-1.36,2.59-1.36,6.65s.14,5.39,1.36,6.65c.84.87,2.07,1.36,3.35,1.36,2.42,0,4.14-1.55,4.66-3.92h2.07c-.63,3.65-3.27,5.78-6.73,5.78"/>
  <polygon class="st0" points="122.05 40.28 122.05 20.89 134.09 20.89 134.09 22.74 124.12 22.74 124.12 29.58 132.62 29.58 132.62 31.43 124.12 31.43 124.12 38.43 134.09 38.43 134.09 40.28 122.05 40.28"/>
  <path class="st0" d="M174.58,22.74v-1.85h-38.7v19.4h2.07v-7.98h5.15c3.54,0,5.99-2.23,5.99-5.72,0-1.57-.53-3.19-1.81-4.28,0,0,.69.43,1.2.43h5.75v17.54h2.07v-17.54h6.23v17.54h2.07v-8.55h6.62v-1.85h-6.62v-7.14h9.97ZM142.91,30.45h-4.96v-7.71h4.96c2.42,0,4.11,1.28,4.11,3.84s-1.69,3.87-4.11,3.87"/>
  <path class="st0" d="M185.01,40.28l-1.55-4.39h-8.47l-1.55,4.39h-2.21l7.14-19.4h1.74l7.11,19.4h-2.21ZM179.26,23.85l-3.65,10.24h7.25l-3.6-10.24Z"/>
  <path class="st0" d="M194.74,40.28h-7.55v-19.4h7.3c3.38,0,5.72,1.93,5.72,5.18,0,2.04-1.23,3.65-2.86,4.25,1.85.68,3.16,2.29,3.16,4.6,0,3.51-2.34,5.37-5.78,5.37M194.33,22.74h-5.07v6.73h5.07c2.15,0,3.81-1.06,3.81-3.38s-1.66-3.35-3.81-3.35M194.55,31.32h-5.29v7.11h5.29c2.4,0,3.9-1.39,3.9-3.57s-1.5-3.54-3.9-3.54"/>
  <g>
    <path class="st0" d="M5.22,76.45c-.72,0-1.29-.2-1.71-.61-.42-.41-.63-.97-.63-1.67v-3.71c0-.71.21-1.26.63-1.67.42-.41.99-.61,1.71-.61s1.27.21,1.69.62c.42.42.63.98.63,1.69h-.87c0-.49-.13-.86-.39-1.13s-.62-.4-1.07-.4-.82.13-1.08.39c-.26.26-.39.63-.39,1.11v3.71c0,.48.13.85.39,1.11.26.26.62.39,1.08.39s.81-.13,1.07-.4.39-.65.39-1.13h.87c0,.71-.21,1.28-.63,1.69-.42.42-.99.62-1.69.62Z"/>
    <path class="st0" d="M11.75,76.45c-.71,0-1.26-.21-1.67-.62-.41-.42-.61-1-.61-1.75v-3.53c0-.75.2-1.33.61-1.75.41-.42.97-.62,1.67-.62s1.26.21,1.67.62c.41.42.61,1,.61,1.74v3.54c0,.75-.2,1.33-.61,1.75-.41.42-.97.62-1.67.62ZM11.75,75.67c.45,0,.8-.13,1.04-.39s.37-.63.37-1.11v-3.71c0-.48-.12-.85-.37-1.11-.25-.26-.59-.39-1.04-.39s-.8.13-1.04.39c-.25.26-.37.63-.37,1.11v3.71c0,.48.12.85.37,1.11s.59.39,1.04.39Z"/>
    <path class="st0" d="M16.11,76.34v-8.06h1.17l2.59,7.04c0-.17-.02-.38-.03-.62-.02-.24-.03-.49-.04-.75-.01-.26-.02-.49-.02-.71v-4.97h.85v8.06h-1.18l-2.57-7.04c.01.22.03.53.05.93s.03.78.03,1.15v4.97h-.85Z"/>
    <path class="st0" d="M25.09,76.45c-.72,0-1.29-.2-1.71-.61-.42-.41-.63-.97-.63-1.67v-3.71c0-.71.21-1.26.63-1.67.42-.41.99-.61,1.71-.61s1.27.21,1.69.62c.42.42.63.98.63,1.69h-.87c0-.49-.13-.86-.39-1.13s-.62-.4-1.07-.4-.82.13-1.08.39c-.26.26-.39.63-.39,1.11v3.71c0,.48.13.85.39,1.11.26.26.62.39,1.08.39s.81-.13,1.07-.4.39-.65.39-1.13h.87c0,.71-.21,1.28-.63,1.69-.42.42-.99.62-1.69.62Z"/>
    <path class="st0" d="M29.47,76.34v-8.06h4.55v.79h-3.68v2.66h3.29v.78h-3.29v3.02h3.68v.79h-4.55Z"/>
    <path class="st0" d="M36,76.34v-8.06h2.53c.74,0,1.33.21,1.77.63.44.42.66.99.66,1.71s-.22,1.27-.66,1.7c-.44.43-1.03.64-1.77.64h-1.66v3.38h-.87ZM36.87,72.17h1.66c.46,0,.83-.14,1.11-.42.28-.28.41-.66.41-1.13s-.14-.86-.41-1.13c-.27-.28-.64-.41-1.12-.41h-1.66v3.09Z"/>
    <path class="st0" d="M44.43,76.34v-7.26h-2.26v-.79h5.39v.79h-2.25v7.26h-.87Z"/>
    <path class="st0" d="M55.68,77.56l3.93-10.38h.93l-3.93,10.38h-.93Z"/>
    <path class="st0" d="M71.46,76.45c-.72,0-1.29-.2-1.71-.61-.42-.41-.63-.97-.63-1.67v-3.71c0-.71.21-1.26.63-1.67.42-.41.99-.61,1.71-.61s1.27.21,1.69.62c.42.42.63.98.63,1.69h-.87c0-.49-.13-.86-.39-1.13s-.62-.4-1.07-.4-.82.13-1.08.39c-.26.26-.39.63-.39,1.11v3.71c0,.48.13.85.39,1.11.26.26.62.39,1.08.39s.81-.13,1.07-.4.39-.65.39-1.13h.87c0,.71-.21,1.28-.63,1.69-.42.42-.99.62-1.69.62Z"/>
    <path class="st0" d="M75.75,76.34v-8.06h2.42c.48,0,.9.1,1.25.29.36.19.63.46.83.8.19.34.29.75.29,1.21,0,.56-.15,1.03-.44,1.42-.29.39-.68.65-1.18.79l1.71,3.55h-.98l-1.63-3.48h-1.41v3.48h-.86ZM76.61,72.07h1.56c.45,0,.81-.14,1.08-.41s.4-.64.4-1.09-.14-.81-.41-1.08c-.27-.27-.63-.41-1.07-.41h-1.56v2.99Z"/>
    <path class="st0" d="M82.45,76.34v-8.06h4.55v.79h-3.68v2.66h3.29v.78h-3.29v3.02h3.68v.79h-4.55Z"/>
    <path class="st0" d="M88.53,76.34l2.13-8.06h1.16l2.12,8.06h-.88l-.56-2.19h-2.52l-.55,2.19h-.89ZM90.15,73.41h2.15l-.68-2.69c-.11-.45-.2-.82-.27-1.13-.07-.3-.11-.5-.12-.6-.02.1-.06.29-.12.6-.07.3-.15.68-.27,1.13l-.7,2.69Z"/>
    <path class="st0" d="M97.42,76.34v-7.26h-2.26v-.79h5.39v.79h-2.25v7.26h-.87Z"/>
    <path class="st0" d="M102.37,76.34v-.79h1.67v-6.47h-1.67v-.79h4.22v.79h-1.66v6.47h1.66v.79h-4.22Z"/>
    <path class="st0" d="M111.1,76.45c-.71,0-1.26-.21-1.67-.62-.41-.42-.61-1-.61-1.75v-3.53c0-.75.2-1.33.61-1.75.41-.42.97-.62,1.67-.62s1.26.21,1.67.62c.41.42.61,1,.61,1.74v3.54c0,.75-.2,1.33-.61,1.75-.41.42-.97.62-1.67.62ZM111.1,75.67c.45,0,.8-.13,1.04-.39.25-.26.37-.63.37-1.11v-3.71c0-.48-.12-.85-.37-1.11-.25-.26-.59-.39-1.04-.39s-.8.13-1.04.39c-.25.26-.37.63-.37,1.11v3.71c0,.48.12.85.37,1.11s.59.39,1.04.39Z"/>
    <path class="st0" d="M115.46,76.34v-8.06h1.17l2.59,7.04c0-.17-.02-.38-.03-.62s-.03-.49-.04-.75c-.01-.26-.02-.49-.02-.71v-4.97h.85v8.06h-1.18l-2.57-7.04c.01.22.03.53.05.93s.03.78.03,1.15v4.97h-.85Z"/>
    <path class="st0" d="M128.54,77.56l3.93-10.38h.93l-3.93,10.38h-.93Z"/>
    <path class="st0" d="M142.07,76.34v-8.06h4.55v.79h-3.68v2.66h3.29v.78h-3.29v3.02h3.68v.79h-4.55Z"/>
    <path class="st0" d="M148,76.34l2.34-4.12-2.2-3.94h1l1.27,2.41c.07.13.14.27.23.43.08.16.15.29.21.39.05-.1.12-.23.2-.39.08-.16.16-.3.23-.43l1.29-2.41h.96l-2.2,3.89,2.34,4.17h-1l-1.41-2.62c-.07-.12-.14-.27-.22-.43-.08-.16-.15-.29-.2-.4-.06.1-.13.24-.21.4-.08.16-.16.3-.22.42l-1.43,2.63h-.97Z"/>
    <path class="st0" d="M155.31,76.34v-8.06h4.55v.79h-3.68v2.66h3.29v.78h-3.29v3.02h3.68v.79h-4.55Z"/>
    <path class="st0" d="M164.19,76.45c-.72,0-1.29-.2-1.71-.61-.42-.41-.63-.97-.63-1.67v-3.71c0-.71.21-1.26.63-1.67.42-.41.99-.61,1.71-.61s1.27.21,1.69.62c.42.42.63.98.63,1.69h-.87c0-.49-.13-.86-.39-1.13-.26-.27-.62-.4-1.07-.4s-.82.13-1.08.39c-.26.26-.39.63-.39,1.11v3.71c0,.48.13.85.39,1.11s.62.39,1.08.39.81-.13,1.07-.4c.26-.27.39-.65.39-1.13h.87c0,.71-.21,1.28-.63,1.69-.42.42-.99.62-1.69.62Z"/>
    <path class="st0" d="M170.71,76.45c-.72,0-1.28-.21-1.67-.62-.39-.41-.59-.97-.59-1.67v-5.88h.87v5.88c0,.46.12.83.35,1.1.24.27.58.4,1.04.4s.8-.13,1.04-.4.35-.63.35-1.1v-5.88h.87v5.88c0,.71-.2,1.26-.58,1.67-.39.41-.95.61-1.68.61Z"/>
    <path class="st0" d="M176.91,76.34v-7.26h-2.26v-.79h5.39v.79h-2.25v7.26h-.87Z"/>
    <path class="st0" d="M181.85,76.34v-.79h1.67v-6.47h-1.67v-.79h4.22v.79h-1.66v6.47h1.66v.79h-4.22Z"/>
    <path class="st0" d="M190.58,76.45c-.71,0-1.26-.21-1.67-.62-.41-.42-.61-1-.61-1.75v-3.53c0-.75.2-1.33.61-1.75.41-.42.97-.62,1.67-.62s1.26.21,1.67.62c.41.42.61,1,.61,1.74v3.54c0,.75-.2,1.33-.61,1.75-.41.42-.97.62-1.67.62ZM190.58,75.67c.45,0,.8-.13,1.04-.39.25-.26.37-.63.37-1.11v-3.71c0-.48-.12-.85-.37-1.11-.25-.26-.59-.39-1.04-.39s-.8.13-1.04.39c-.25.26-.37.63-.37,1.11v3.71c0,.48.12.85.37,1.11.25.26.59.39,1.04.39Z"/>
    <path class="st0" d="M194.94,76.34v-8.06h1.17l2.59,7.04c0-.17-.02-.38-.03-.62s-.03-.49-.04-.75c-.01-.26-.02-.49-.02-.71v-4.97h.85v8.06h-1.18l-2.57-7.04c.01.22.03.53.05.93s.03.78.03,1.15v4.97h-.85Z"/>
  </g>
</svg>