<svg xmlns="http://www.w3.org/2000/svg" id="Warstwa_1" viewBox="0 0 841.89 595.28"><defs><style>.st0{fill:#fff}</style></defs><path d="M182.48 320.81s-3.74-.53-7-.19c.9-6.59-1.8-7-6.85-7s-8.39.79-7.19 6.25c0 0-5.39-.9-10.52.04 0 0 1.38-15.57-.71-22.53 4.04.64 10.07.75 17.11.08-1.38 11.6.45 11.6 3.18 11.6s3.11 0 2.96-10.89c0 0 2.4.52 10.11.08-2.25 11.27-1.09 22.57-1.09 22.57ZM231.5 160.98c-13.44 0-15.57-5.24-16.43-11.68s.19-11.68 16.66-11.68 17.44 5.24 16.43 11.68-3.26 11.68-16.66 11.68m-3.18-19.77c-6.03 0-6.51 2.84-6.29 6.36.23 3.48 1.01 6.33 6.4 6.33s6.1-2.84 6.29-6.33c.15-3.52-.38-6.36-6.4-6.36M578.68 159.54s-2.21-1.09-1.35-12.17c.26-3.52.71-5.69-3.26-5.69-3.18 0-3.41 2.81-3.41 6.36 0 8.5.94 10.56.94 10.56s-4.83-.67-8.87-.04c0 0 .38-1.35.38-9.36 0-2.73.3-4.75-3.67-4.53-3.86.23-3.33 2.28-3.33 4.94 0 5.32.56 9.66.56 9.66s-2.51-.26-5.28 0c0 0 .45-5.65.56-11.42.11-6.48-.82-11.34-.82-11.34 8.76 2.17 15.98 2.02 30.02.22 9.28-1.2 10.56 4.16 9.73 12.05-.94 9.28.71 10.78.71 10.78s-9.25-.6-12.91-.04ZM339.4 239.39c-1.18.65-3.96 2.61-5.01 2.92-.54.16-.94.12-1.48.15-.21 1.18-.61 1.89-1.49 2.69l.81 1.09c-.83.63-1.23-.1-1.62 1.19l-.98-.86.39 1.6c-.11.54-.85.46-1 .62-.23.27.32.92-.69.38-.18.42-.12.98-.23 1.36-.06.19-.41.16-.43.3-.05.39.39 1.09.22 1.6-.3.31-2.85-1.31-3.06.76-.12 1.24.65 1.6-.32 2.92-.91 1.24-.84-.28-1.83.67l-.33-.43c-.92.49-.45 1.16-.56 1.61-.06.25-.4 1.54-.46 1.61-.07.08-1.46.69-1.66 1.17-.1.23.33 1.11-.47 1.81-.56.49-.28-.36-.65-.33-.05.75-.59 1.19-.22 1.95l-.65-.22c.33.82-.38 1.58-.43 2.07-.06.53.66 1.92.41 2.25-.79.58-1.39-.61-1.94.13-.15.72.5.33.45 1.07-.06.8-.58 1.69-.67 2.52l-.43-.22-.23.96.46.25-1.54 4-.22-.87c-.5.11-.55 1-.41 1.39.15.42.7.26.81.39.05.05.25 1.3.23 1.36-.08.35-.69.25-.8.38-.14.16 0 1.05-.59 1.26l-.22-.43c-.82.32-.45 4.62-.53 5.53l-.68.24c.12 1.57-.36 3.25-.43 4.78-.04.93.56 1.61-.1 2.49-.22.29-.74.4-.77.58-.07.36.26 1 .25 1.48-.01.78-.25 1.45-.25 2.17 0 .65.34 1.41.25 1.95-.12.69-1.42.64-.66 2.07l-.43-.22c-.22 1.11.2 2.37.22 3.37 0 .35-.2.71-.22 1.09-.03.45.46.85-.11 1.19l-.22-.43-.33.54.22.65.43-.1c-.33.95.46 1.48.61 2.11.11.46.48 1.59.49 1.68.07.56-.08 1.27-.02 1.86l-.87-.43-.04.62-.62.03c.12.64.57 1.72.59 2.32 0 .43-.34.9-.32 1.06.05.33 1.38.44 1 1.68-.12.38-1.57 1.88.04 1.67.43.84-.8 1.95-.64 2.47.07.23.47.23.62.53.34.67 1.51 4.27 1.55 4.93.06 1.12-.58 1.32-.66 1.57-.07.23.05.54 0 .76-.06.25-.45.23-.54.37-.54.8.54 1.23.85 1.76.14.25 1.13 2.38 1.15 2.51.05.39-.29.92-.13 1.37l.61.03c-.18.67.41 1.2.47 1.63.05.34-.18.68-.16.87.03.21.47.25.6.46.15.24.53 1.9.42 2.02l-.87-.43v.54c1.84.34 1.37 1.71 1.8 2.97.16.48.96 1.49.97 1.58.02.25-.51.59-.38.98l.75-.23.15.39c1.86-.43.94.89 1.04 1.65.05.35 2.37 1.49.66 3.29.27.43.48.19.87.11-.14.85.44 2.16 1.07 2.68.42.35 1.64.44 2.21.89.53.43.5 1.11.85 1.55.47.6 2.42 1.72 1.42 2.7l-.87-.65c-.28 1.07.96 1.89 1.55 2.68.17.24.15.6.38.81.78.69 2.53-.62 3.07 1.28.08.29-.13.62-.11.64.03.03.61.1.91.3.14.09 1.12.94 1.15 1.01.61 1.22-1.61 3.32 1.64 2.7.28.23.32 1.51.7 1.81.17.13.6.15.89.3.23.12.39.43.59.51.75.33 2.18-.48 2.6-.22.93.57.05 2.71.22 2.95l.43-.22c-.07 1.28 1.16.91 1.91 1.25 1.2.55-.1 1.78.14 2.23.82.39 1.15 1.4 1.88 1.83.58.34 1.58.37 2.06.77.25.2.82 1.42 1.02 1.48.8.25 1.29-.99 1.62 1.06.05.29-.27.65-.05.96l.89.19c.03 1.95 1.4 2.89 2.82 3.93l.23-.45.75.23.2-.78 1.1-.1-.43-.65h2.37c-.44 2.09 3.86 1.84 1.84 3.64l-1.38-.28c-.44-.19-1.01-2.24-1.42-2.05-.86.39.32 2.71 1.04 3.08 1.41.74 2.19-.25 2.71 0 .03.02.11.31.32.45 1.66 1.08 1.48 1.04 2.25 2.75.59 1.3.88.51 1.4.55.62.05 1.67.43 1.52 1.2h.75c.12.83.64 1.46 1.54 1.52.92.06.58-.58.86-1.07.8-1.4 1.59 1.12 1.27 1.95l.78.21-.22.65 1.36-.19c.81.22.34 1.2.64 1.44.69.45 1.38 0 2 .05.47.04 2.71 1.26 3.1 1.59.3.26.77 1.22 1.01 1.38.54.37 1.76.17 2.22 1.15.65-.88.88-2.01 2.26-1.5.09.81-.14 1.67.24 2.44.06.12.39.12.43.3.18.78.06 2.34-.86 2.59-.72.2-1.35-1.39-2.1-1.84-1.45-.86-2.45-.68-3.93-.08-.38.16-.54.6-1.04.7-1.13.22-2.72-.47-4.01 0v-.65c1.15.1 2.1-.44 3.14.22l.3-.51c-.77-2.02-2.15-.42-3.53-.18-.94-.88-1.1-2.22-2.74-2.13.45.79-.17 2.05-1.09 1.95-.18-.94.22-1.47.61-2.24l-.94-1.01c-.16-.05-.15.97-.54 1.2-1.4.82-1.31-.67-1.74-.89-.29-.15-.78.25-1.46-.04-.14-.06-2.54-1.38-2.66-1.47-.36-.25-.52-.78-.86-1.09-1.07-.98-1.91-.22-3.04.23l-.22.21c1.38 1.13-1.55 1.45-1.19.33.16-.49.44-1.76.52-2.3.09-.59-.03-1.24 0-1.84-.37-.39-1.71.87-1.74.99-.06.26 1 1.14.09 1.59l-.96-.19c.46-1.13-.79-2.77-2.05-2.4l-.12.66h-.64l-.44-1.73c1.62-.41 2.86-.56 3.04-2.5l-1.19-.54-.22.21c.31.78-1.13.68-1.61.99-.31.2-1.25 2.16-1.71.59-.23-.77.31-.98.4-1.49.15-.92-.51-2.3 0-3.35l-1.09-.22v1.52c-1.49.56-2.72-1.79-3.2-1.93-.66-.2-.79.4-1.37.41l.43-.54c-.55-.88-2.37-.59-2.77-.81-.05-.03-.79-.77-.82-.82-.15-.25.19-.55-.08-.97-.34-.54-1.27-1.05-1.69-1.48-.15-.15-.1-.57-.38-.82-.21-.18-.62-.12-.79-.34-.69-.89 1.09-1.67-.09-2.69-.46-.39-.47.37-.92.61-1.7.89-1.96-1.09-2.47-1.99-.36-.63-1.5-1.5-2.02-1.88-.36-.25-1.74-.82-1.83-1.22l.19-.73.75.23c.24-.81.68-.26 1.25-.33.41-.05 1.11-1.02.83-1.41-.48.24-1.24.47-1.52-.22 1.7.67 2.69-2.05 1.31-2.82l-.87.87.43.22c-.27.68-1.1.73-1.73.87l-2.18-5.21c-1.47.32-1.12-.13-1.53-.92-.08-.16-.37-.15-.41-.32-.06-.27.09-.75-.04-.9-.04-.05-.57-.09-.86-.33-.46-.4-.81-1.79-1.44-2.04-.71-.28-1.83-.32-2.53-.48-.27-.06 0-.53-.36-.44-.3 1.86.25 1.25.81 1.79.2.19.21.72.49.93-.83.23-1.62-1.1-2-1.69-.17-.26-.1-.72-.29-1.01-.5-.78-2.04-1.88-2.46-2.53-.5-.78-.82-2.55-1.23-3.33-.32-.61-1.53-.95-.02-1.32.85.82.63 1.97 1.28 3.11.26.45 1.95 2.16 2.05 2.39.24.54-.2 1.11 1.19.91.7-.1.77-1.16.95-1.39.52-.68 1.53-.8 1.18-1.97l-2.25.63c-.32-.25-1.81-1.5-1.44-1.93l.65.22c.21-.98-.72-1.7-1.07-2.34-.08-.14.04-.55-.08-.87-.09-.26-1.28-.56-.81-1.58-.74-.18-.58.26-.88.53-.79.68-1.18-.45-2.13-.34l-.41-2.7.6-.62c-.23-.57-.67-1.02-.79-1.64-.14-.75.16-3.19-.63-3.48l-.44.65-.53-.34.41-3.65c-.77-1.05-1.31.23-1.72.41-1.01.44-.76-1.99-.23-2.63.33-.4.88-.1.61-1.01-.12-.39-.55-.69-.7-1.05-.2-.45-.36-.85-.53-1.25-.2-.45-.04-1.41-.89-1.35l-.22.43-.03-.62c-.81.11-1.71-.62-1.01-1.28.25-.24.87-.1.83-.69l1.29.42c-.68-.9-.15-1.8-.22-2.93-.06-.89-.45-1.66-.65-2.5l-.78 1.1c-1.79.38-1.3-2.83.35-1.97-.44-.74.21-1.28.22-1.63 0-.31-.53-.76-.43-1.19l-.22.87c-.28.38-1.16-2.64-.22-2.28l.44.23c1.04-1.1 1.2-1.82-.66-1.86-.09-.68.55-.32.98-.87.24-.3.37-.69.33-1.08-1.11-.35-2.27 1.09-2.36-.5l1.05-1.57 1.39-.09c1.01-.65-.49-2.96-1.59-2.4-.45-1.04.59-1.77.66-2.29.07-.49-.29-1.3-.02-1.92l-.64-.13c-.42-.91.73-1.93.67-2.5s-.73-.27-.69-1.07c.07-1.23.85-1.14 1.05-1.48.22-.38.12-5.97.03-6.77-.18-1.56-1.4-2.8-.84-4.26l1.19.87c.91-.9.09-2.02-.11-3.04l-.43.22.21-1.18-.83-.47-.05-1.49.64-.13.05-1.05 1.03-.27.03-3.02.65.43c-.07-.51-.13-1.07-.28-1.56-.19-.61-1.47-2.26.07-2.13l-.43-1.52.65.22.03-1.29.63-.16.21-1.38-.65.43c-.4-.86.29-1.5.22-2.39l.22.87c1.15-.11.06-1.49.2-2.51.05-.38.37-.29.43-.48.44-1.3.75-2.56.67-3.96-.5.28-.1 1.09-1.08.87l-.2-1.39 1.49-.7c-.12-1.17-.94-2.71-.37-3.83.61-1.19 1.24.2 2.34-.16l-.43.22c-.11 1.12 1.53-.65 2.08-.65l-.13-1.96-.87.43-.22-3.9c1.04.19 1.49-1.32 2.28-1.96l.43.44c.2.05.48-.19.54-.33.27-.71-.63-.34-.43-.97l1.09-.22-.11-1.74.69-.39c.68.32 1.11.71 1.7-.03.47.31.2.44.11.86l1.25-.05c.86-.45.28-2.3.52-2.53.07-.07.44.05.56-.06.17-.16 0-.66.41-.8.37-.13.97.03 1.39-.03.11-1.28-.85-1.56-1.96-1.08l.13 1.1c-.34.24-.75.18-1.11.41-.5.32-.91 1.33-1.29 1.33-.63.01-2.05-.76-2.07-1.54l.93.61c1.41-.73 3.33-1.43 3.63-3.22-.98.32-1.35 1.39-2.6 1.08-.05-.43 0-.98.43-1.19.19-.09 2.65-.3 3.15-.33.39-.02.81.26 1.29.22.36-.03 1.06-.6 1.21-.44.04.05-.09.44.04.59.11.12.56.09.85.37.13.12 0 .4.07.49.46.62.83.36 1.15.55.23.14.26.89 1.14.6.4-1.44-1.53-1.3-1.92-1.55-.1-.06-1.06-1.8-.9-2.14-.61-.12-.42.22-.43.65-1.13-.46-1.11-.09-1.95.43.37-.81-.42-1.16-.43-1.23-.36-1.51.81-.95 1.52-1.27s.28-1.03 1.63-.32l.33-.54c-1.07-.24-.16-2.39.21-2.61.29-.17 1.07-.18 1.39-.07.41.13.15.8.78.62v-1.09l-.43-.1c.77-1.43 1.49-2.18 2.88-2.99.19-.11 1.39-.77 1.54-.84.5-.22 1.12-.2 1.66-.19.14-.63-.4-.28-.56-.84-.1-.36-.18-.82-.06-1.18.31-.96.67.16.94.07.61-.23.83-1.24 1.05-1.46.09-.1.4 0 .59-.2 1.01-1.01.38-.95.21-1.72-.26-1.14 1.95-1.18 2.44-1.4.34-.15.45-1.06 1.26-.86.1-.92-.94-.27-1.3 0-.38-.49 1.05-1.3 1.41-1.3.29 0 .57.42 1.07.44 1.52.07 1.97-1.94 2.62-3.05l.21.44c.84-.58 2.35-.64 2.28-1.96l-1.74-.22.26-.61c.35-.23 1.19.1 1.6.08.84-.05.27-.52 1.23.03.82.47 2.06-1.06.6-1.13l.67-1.4c.91.23 1.72.14 2.64-.07.25-.06.43-.37.71-.38.1 0 .75 1.12 1.63.88.21-1.61 1.82-2.88 2.94-1.3h.54c-.21-.97.39-.91.77-1.31.17-.18.28-.51.38-.58 1.4-1.06 5.25-.09 6.96-.04l.3-.56c-.53-1.26-1.13-.8-2.02-1.17-1.18-.5-.82-1.73.63-1.28.36.11.51.56.82.7 2.06.95 4.04 1.06 6.29 1.12l.65-.78c-.6-.11-1.53-.32-1.52-1.08l2.29-1.09c.53.01 1.13 1.5.64 1.95-.35.32-.91 0-.76.65.43-.03.96.09 1.37-.04.48-.15.49-.71.62-.79.4-.24 2.32.43 3 .18l-.22.43c1.34.39 1.92.52 2.51-.84l2.78.18c.53 1.61 2.25 1.55 1.87-.42l6.51.65.02-.63c1.02.17.73-.56 1.61-.69 1.48-.22 1.35 1.18 1.77 1.31.5-.18 1.24-.09 1.66-.22.22-.06.18-.55.72-.58 1-.05 5.35.49 5.82.35.31-.09.16-.58.67-.65 1.94-.27 4.53 2.31 6.09-.41l1.13 1.26c.6.14 2.3-.66 2.77-.63.59.04.83 1.18 2.18.77.79-.24 1.9-2.19 2.73-1.11.71.91-.32 1.81-.24 1.86 1.02-.36 2.89.59 3.77.45.22-.03.23-.61.48-.67.23-.06.61.34.91.39 1.17.21 2.12.46 3.04.69 1.09.27 2.16-.55 3.2.21 1-1.75 1.74-.43 2.94-.09 1.03.3 4.15.74 5.08.32l.15-.64c1.36-.35 1.38.9 1.88 1.3s1.52.41 2.12.64l.21-1.31c.81-.73.98.47 1.47.72.99.51 1.47 0 2.33.15l-.13.88c.77-.1 3.27 1.85 3.6 1.51v-.63c-.94-.03-1.72-1.1-1.3-1.97 1.83.14 2.13 2.33 3.03 3.37.37.43 2.01 1.16 2.29 1.62.41.69-.38 1.65 1.5 1.73.45-.13.36-.91.35-1.29-2.58.11-.76-1.39-1.3-2.82l1.71.24c.31.81-.15 1.47.49 2.23.43.51 1.51.69 1.87 1.06s1.07 2.46 1.91 1.92c1.44-.94-.57-1.76-.32-2.73.14-.55 1.08-.04 1.31.2 1.02 1.05 1.02 2.84 0 3.9 2.86 2.86.52-.62 2.71-.88 1.22 1.14 2.05 2.95 4.01 2.75l-.22.65.74.23.24-.46c.63-.04 2.05 1.43 1.84 2.18-.75.09-1.34-.38-2.06-.43-1.77-.15-.08 1.1.98 1.22.75.08.89-.28 1.37-.29.66 0 2.02.62 1.14 1.26l-.99.2c-.14 1.17 1.17 1.76 1.83 2.62.86 1.13 1.03 2.38 2.19 3.24.3-.64.73-2.17-.3-2.14l-.15.42-.74-.34c.33-.95 2.28-.89 2.72-.34.19.24.23 2.4-.14 2.81l-.84.03c.32 1.55.99-.2 1.62-.21.55-.01 1.33.9 2.07.65-.02-.44.08-.95-.04-1.37-.18-.62-.97-.34-.83-1.02.86-.29 1.04.95 1.44 1.07l1.16-.42c.22 2.64-.65 1.94-2.59 2.18 0 1.37.54 2.61 1.62 3.46 1.37 1.08 3.07.95 4.31 1.99.75.63.99 1.52 1.86 2.06l-.82 3.17c.73.92.82 2.24 1.22 3.15.2.46.75.7.95 1.25.29.81-.09 1.69.82 2.8.23.29.67.02.85.17.61.48.19 3.62 2.43 3.22-.67 1.84.85 3.85 1.08 5.55.1.76-.34 1.51-.18 2.1s.98.68 1.12 1.08-.18 1.03-.07 1.53c.07.34 1.1 2.16 1.22 2.75.08.4-.16.86-.04 1.09.19.38.84.3.77.65-.73-.11-.31.66-.48 1.14-.22.61-1.68 2.29-.23 2.73 1.51.45.87-.58.93-1.13.08-.69.86-1 .44-1.87.61-.13.42.22.43.65l.65-.12c.37.21-.1.66 0 .75.08.08.95.02 1.05.59.15.79-1.35 1.08-1.8 1.83-.17.29-.75 1.97-.72 2.23.04.39 1.03 2.18 1.26 2.85.31.9.47 2.37.81 3.1.26.56.39.4.92.27.22.94-.92.54-.43 1.51-1.72.05-.4 2-.42 3.16-.01.91-.69 2.54-.58 3.27.07.49 1.05.83 1.22 1.12.24.4.09 2.65-.01 3.18-.04.17-.44.14-.56.56-.17.59-.18 1.85 0 2.43.23.71 1.15.77.55 1.79-.09.15-.4.17-.5.42-.52 1.29.2 1.21.59 1.92.56 1.03.91 2.12.73 3.29-.05.32-.65.86-.39 1.47l-.32-.43c-.93.37.29 2.11.98 2.28-1.95.95-.12 2.53-.19 3.69-.04.53-.69.33-.69.87 1.19 1.34.48 3.03 1.03 4.64.21.61.82 1.08.94 1.77-.76-.05-1.19-.82-1.09-1.52l-1.53.77c-.09 1.61.68 2.93 1.32 4.33l-.43-.11c-.09.71.13 1.61 0 2.28-.09.48-.56.62-.65 1.09-.02.11-.02 2.01 0 2.14.03.2.43.19.52.36.13.27.57 1.38.58 1.61.02.89-1.02 1.75-1.12 2.61-.15 1.31.89 2.47.83 3.01 0 .1-.56 1.89-.62 1.98-.28.4-.62.33-1.06.35-.02.24-.05.51-.02.76.11 1.03.57.55 1.21.96.19.12 1.26 1.11 1.48 1.34.59.6.4 1.15-.39 1.06-.48-.05-.78-.71-1.36-.84-2.16-.47-.43 1.79-.71 2.13-.64-.61-1.87.54-1.74 1.19.09.44 1.66.21 1.63-.32.66.5 1.17.78 1.41 1.63-.3.42-.29.23-.59.17-1.06-.22-.93-.85-2.12.16l-.46-.64c-1.65.04-1.1 1.35-1.22 2.22-.08.58-.52 1.02-.39 1.78.11.66 1.24.91 1.3 1.73-.08.41-1.77.77-2.24 1.02-.11.06-1.14.82-1.18.88-.25.46.3 1.62-.92 1.7 1.21 1.42 1.09.59 1.54-.27.08-.15.35-.17.37-.23.06-.13-.31-1.11.49-.7.07.08.16.13.22.21.59.75-.09.63-.25 1.09-.28.8.27 2.03-.07 2.52-.55.78-2.96-.59-3.36-.2.17.54-.52.61-.47.94.08.52.73.64.67 1.29-.02.22-1.16 2.01-1.4 2.54s-.03 1.26-.72 1.45c-.51.15-1.22-.14-1.61.35-.23.3-.25 1.13-.51 1.66-.39.82-1.47 1.37-1.42 2.37.98-.53 1.53.23.54.82l-.98-.49c-.22.2-.57.34-.75.56-.47.56-.08 1.25-1 .49v-1.59c-.36-.4-1.1 1.16-1.1 1.63 0 .7 1.06 1.24.67 2.27-1.01.18.22-1-.54-.87-1.09.19-3.54 2.97-3.11 3.66.09.14.91.15.6 1-.12.32-.56.26-.78.42-2.41 1.79-4.9 5.06-5.77 8.02-.19.66.46 1.34-.93 1.26-1.9-.11.28-1.52.29-1.64.01-.14-.39-.86-.72-.76-.34.09-.64 1.59-.99 1.84-.08.06-1.47.73-1.74.86-.35.16-1.02.06-1.2.32-.27.4.21 1.7-.74 2.09l-.49-.12c-.12-.33-.91-.82-1.14-.43-.4.94.37 1.38.97 1.88.07.87-.79 1.08-1.49.93l-.44-1.84c-1.55-.35-1.09.41-1.37.94-.11.2-1.04.75-1.21 1.3-.2.67.1 1.08.61 1.47l.51-.1c.43-.36.07-1.38.68-1.31s1.01.35 1.01.97c0 1.1-1.18.87-1.31 1.33.39 1.05-.21 1.82-.24 2.9h-.64c.56-1.08-.16-1.05-.21-1.23-.09-.33.04-.74-.11-1.16-1.12-3.2-1.9-.52-2.92-.3l-1-.52c-.75 1.24-2.21 1.17-3.14 1.82-1.06.73-2.18 2.94-3.6 3.57-.65.09-.1-.52-.23-.87-.03-.09-.8-1.03-.88-1.05-1.37.56-2.94.93-3.89 2.14l.48 1.42-.69.68c-.86.11-1.07-1.03-1.57-1.19-.3-.09-2.47-.25-3-.28-.42-.02-.98.3-1.27.22-.32-.09-.37-.61-.57-.75-.73-.49-3.39 1.1-2.83 2.5-.99.33-1.42-1.07-2.08-1.49-.84-.54-2.96.3-3.97.5-.37.08-.72-.12-1.28.05-.82.25-1.15 1.16-1.27 1.18-.24.04-.7-.22-1.05-.23-.37-.02-2.82-.18-2.94-.1-.36.22-1.02 2.36-2.16 2.28.27-.89 1.03-1.33.4-2.36-1.25-.25-2.3.5-3.33 1.06-1.68-2.27.97-2.36 2.48-2.95.82-.32.94-1.23 1.86.33.67-.44.78-1.21 1.22-1.81.21-.28.64-.41.74-.58.17-.27-.66-2.25 1.04-1.27 1.42.82-.62 1.57-1.38 1.93l.77 1.3c.76.02 1.68-1.6 1.97-1.68.21-.06.91.14 1.25-.03l.35.69c.31.61.44-.16.6-.28.49-.37.9-.77 1.58-.66l-.22-.65h1.08l-.21.65c1.29 0 2.67-.43 3.77-1.11.31-.19.36-.63.73-.79.55-.24 1.59-.11 2.09-.3.08-.03 1.23-.74 1.49-.9.79-.48 1.25-1.42 1.81-2.1.65-.13.46 1.22.87 1.3.33-.09.78-.26 1.05-.47.51-.39 2.24-2.27 2.42-2.81.09-.28-.05-.4-.11-.63l3.1.18c.66-.32.93-1.03 1.03-1.71.69-.15.38.44.43.87 2.53-.05 1.39-1.81-.53-1.97l-.34.45.05-.82.96-.9c1.08-.19.94.91 2.02 1.17 1.88.45 1.75-.52 2.98-1.38.61-.43 1.32-.64 1.92-1.12.31-.24.52-.79.58-.82.26-.14 2.92.1 1.79-1.12-1.25-1.34-1.17 1.36-2.48 1.07-.24-1.6.18-1.07.86-1.64.6-.5 1.16-1.32 1.96-1.52s1.15.15 1.82.11c1.28-.07 3.26-2.75 1.87-3.79l.44-.54c.21-.13.51 1.16 1.23 1.25 1.23.15 1.08-1.43 1.3-2.08.17-.51.58-1.06.67-1.5.22-1.04-.74-2.2-.05-3.1.36-.47 2.3.37 2.79.63.88-.8 2.56-1.82 2.55-3.12 0-.39-.5-1.53.09-1.63.47-.08 1.04.86 1.11.87.95.18 1.37-1.15 1.81-1.79.49-.72.62-1.09.99-1.67.21-.33.88-.48 1.17-.79.4-.42 1-2.25.9-2.77-.07-.35-2.5-1.47 1.05-1.04.07-1.1 1-.92 1.66-1.49.3-.26 2.12-3.46 2.22-3.86.23-.88-.2-1.86-.11-2.31.02-.11 1.13-1.56 1.34-1.9.15-.24.09-.96.56-.62.02.01-.07.38.14.43.98.26 1.97-.14 2.34-1.1.2-.53.61-2.82.56-3.33-.07-.8-1.11-1.25-.98-2.11.11-.72 1.32-.72 1.75-1.04 1-.76 1.01-1.92 1.28-2.85s.93-1.85 1.15-2.75c.32-1.26.26-2.99.54-4.24.24-1.08 2.56-5.66.89-6.21-1.13-.37-1.08.62-1.49.84-.86.47.26-1.15.27-1.22.05-.34-.53-1.66.57-1.35.53.15.43 1.13 1.11.83.93-.41.17-4.44.32-5.54.05-.39.39-.28.44-.48.49-2.04-.44-3.43-.2-5.48-.48.23-.98.4-1.08-.32l1.08.1c-.49-1 .26-.97.53-1.53.87-1.75-.56-1.77-.65-2.79-.04-.42.71-1.42.77-1.89.16-1.21-1.04-1.42-1.09-2.36-.03-.63.29 0 .54-.32.05-.06.64-1.22.67-1.31.34-1.14-.48-2.3-1.01-3.31-.09-.18-.41-.19-.42-.31-.01-.33.4-.84.43-1.3.06-1.17-1.35-2.36.96-1.85 1.12-.81-.72-1.71-.9-2.31-.47-1.57.85-4.65-1.8-4.97.06-.93-.05-1.87.02-2.8.03-.37.37-.68.38-.92.02-.29-.53-.94-.54-1.52s.57-1.21.34-1.88c-.39-1.14-3.24-.93-3.24-1.99 0-.69 2.18-.95 2.57-.71.2.12.23.89 1.13.6.32-2.01-.68-1.19-1.31-1.62-.25-.17-.52-2-.58-2.46-.05-.34.19-.7.13-.98s-1.15-1.23-1.23-1.82c-.04-.27.35-.51.39-.83.13-1.05-.92-2.1-1.49-2.86l.59-1.07c.34-1.48-5.06-1.73-3.3-3.75 1.15-.33 2.4 2.25 2.89.56-1.5-1.02-1.7-2.18-2.44-3.66-.13-.26-.76-.71-.8-.83l-.87.44c.26.53 1.09.51.87 1.3-1.18.16-1.72-.03-1.42-1.3.39-.41.88-.84 1.42-.44-.06-.2.05-.6-.05-.92-.41-1.37-1.11-.38-1.49-.91.08-.8-.47-.87-.57-1.05-.22-.42-.06-1.03-.72-1.35l1.29-1.07c-.66-.81-1.68-1.56-2.3-2.37s-2.73-4.16-3.56-4.59c-.71-.36-2.38-.54-3.19-.93-.91-.44-1.71-1.65-1.26-2.65.35.49.88.73 1.3 1.08.54.45.32 1.16 1.41.65-.03.48-.04 1.15.65 1.09-.07-.96-.2-1.57-.81-2.28l.78-1.09-.28-.33c-1.29-.12-.48-1.3-1.21-2.05-.67-.69-2.95-1.73-3.9-2.16l-1.4-3.4-1.86-.2c.35.52 1.16.73 1.08 1.52-2.53.05-1.07-1.2-1.09-2.04-.02-.67-.74-1.49-.69-2.26-.32-.23-.65-.21-1.01-.13-.59.13-.31.43-.69.52l-.02-.86h-.64l.4-1.07c-2.05-.75-2.58-2.9-4.86-3.26l-.33.51.33.55-.21.42c-.57-.45-1.09-.77-1.85-.65l-.21 1.21-1.09-.13.46-2.59c.23-.16 1.08.1 1.3.31.31.29-.13.72.31.97 1.05-.26-.4-1.12 1.19-.87-.02-.49-.6-.22-.62-.25-.13-.19-.06-.68-.36-1.05-.61-.73-1.24-.09-1.74-.42l-1.3-2.19c-.72.57-.46 1.83-1.25 2.23-1.18.59-1.13-1.26-.53-1.75.17-.14 1 .12.55-.66-.06-.11-1.89-1.55-2.02-1.55-.21 0-.42 1.04-1.49.4-.66-.39-.87-1.41-1.31-1.73-.47-.33-1.33-.18-1.94-.67s-.79-1.55-1.87-1.84c-.81-.22-.95 1.25-1.97.92s-1.21-2.02-1.5-2.21c-.35-.23-.87 0-1.26-.16-.06-.02-.09-.31-.21-.37-.82-.42-1.1-.32-1.47-1.31-.47-.25-.29.95-1.2.79-.86-.16-1.28-1.02-1.69-1.22s-.84.01-1.33-.33-.83-1.18-1.1-1.32c-.18-.09-.8.38-1.39.33-.71-.05-1.42-.7-1.86-.77-.16-.02-1.04.42-1.53.23-.42.67 1.14.38.11 1.19-.26-.34-1.71-1.24-1.79-1.37-.12-.19-.02-.55-.06-.59s-.44.25-.71.19c-.36-.08-.53-.72-1.13-.84-.46-.09-1.4-.05-1.85.09-.89.28-.85 1.59-2.16 1.2.42-.72-.02-1.4-.67-1.83-1.51-.99-1.8-.2-2.9-.34-.4-.05-.64-.44-.98-.56-1.39-.49-1.01.41-1.52.66-.83.42-4.84-.77-6.2-.78-.98 0-2.2.39-3.22.37-1.41-.03-.93-.78-1.12-.79-1.17.13-3.21.92-4.3.65-.16-.04-.14-.39-.3-.43-1.01-.24-3.24 1.43-4.31 1.74-1.14-.67-2.42-2.07-3.85-1.68-.64.17-1.06 1.06-1.77 1.04-1.13-.05-.86-1.26-1.54-1.32-.12 0-1.76.23-1.91.27-.39.12-.62.65-1.18.78-1.28.29-4.37.9-5.59.93-1.12.03-2.73-.35-3.82-.15-1.4.27-1.64 2.04-3.33.59-.53.33-.82.95-1.38 1.23-1.12.57-3.07.44-4.21 1.02-.2.1.05.65-.32.76-.72.02-1.73-.74-2.42-.48-1.59.58-.2 2.56-1.72 3.28-.53-.17-1.36-.5-1.91-.39-.6.12-.83.78-1.55.86-.94.09-1.82-.82-2.91-.32-.61.28-1.46 1.72-1.98 2.14-1.12.91-4.03 2.75-5.25 3.38-.18.09-.21.67-1.01.47l-.02.63-.73-.24c-.24.46-.44.64-1 .67l.43.43-.32.43c-.55-.7-1.2-.11-1.7-.2-.33-.06-.65-1.67-1.45-1.32l.41.86-.42.12v.43c.4.15.51.32.44.77l.44-.15v-.5h.65c.08.91-.6 1.44-.98 2.17l-1.4-.45c-.05-.98.4-1.75-.34-2.6-.59.25-.92 2.12-.77 2.67.08.29.92.19.43 1.23l-.38-.15c-.08.65-.96.1-1.45.16-.58.07-1.16.93-.88 1.52.43.63 1.64-.63 1.63.1-.02 1.18-2.57.95-2.82 2.5.28-.15.58-.29.87-.44.19 1.42 2.09.95 1.52 3.04-1.48.26-2.61-1.22-2.39-2.61Zm99.87-22.55c-.2-.12-1.18-.24-1.04.27.29 1 1.52 1.99 1.95.55-.61.1-.76-.74-.91-.83Zm5.55 1.85c-.62-.99-.64-1.18-2.03-1.24v.65c-.59-.6-1-.25-1.74-.22.04.35.83.44 1.12.51.53.12 1.09.07 1.54.19.33.09 1.11.88 1.46.6.42-.33-.34-.47-.36-.5Zm-83.76-.42c.08-.15.17-.56-.04-.6l-1.72.64-.12.44.98.65c.1-.37.87-1.05.91-1.13Zm88.89 3.09c.06-1.63-1.97-2.64-1.86-.42zm-97.3 0c-1.19-.28-1.39 1.04-1.3 1.95zm-5.04 2.23-2.03.81.33 1.65c.35.26 1.36-.29 1.86-.24s1.44.66 2.25.3l.25-1.71-1.52.22c.06-.47.41-.75-.11-1.08l-.87.44zm-3.14 6.6c.38.13.71.12 1.1.04l.33-.32c.02-.77.43-3.65-1.04-2.96-.85.4-2.14.54-3.34 1.08-1.82.81-1.56.29-2.62 2.16-.07.12-.38.16-.45.3-.19.36-.05.82-.22 1.09-.19.31-.89.22-1.15.49-.35.37-.74 2.41-.46 2.73l1.7.47c-.21-.48-.35-1.32-.23-1.81.04-.14 1.11-.53 1.25-.85.12-.28.02-.75.07-.8.06-.06.53.05.8-.07.07-.03.36-.67.87-.76.45-.08.89.27 1.35.17-.02-1.09.45-1.34 1.2-1.95-.06.35.64.94.83 1.01Zm122.21.07c-.19-.92-.75-1.52-1.74-1.3l.43 1.2 1.3.11Zm-127.18 5.78c-.39-.44-.43-.69-1.18-.56.26 2.14-.46 1.65-1.8 2.22-.27.11-.44.41-.75.55-.39.18-.86-.21-1.03.49l-.33-.11c-.15-.93-.58-1.07-1.51-.98-.09.59.47.62.86.67v2.59c.45.02.9.02 1.34-.1s.41-.49.56-.56c.53-.24 1.14-.23 1.64-.65.33-.27.99-1.51 1.04-1.96 1.22.69.21-1.09 1.52-.87v-.54c-.01-.07-.25-.11-.33-.2Zm-8.84 4.06-1.43.18v.81c.83.34 1.51.12 2.36.02l-.93-1.02Zm-2.55 4.5c.26-.27-.89-1.44-1.5-1.06l-.24 1.06zm155.74 4.16c.43-.08 1.01-.65.76-1.12l-2.62-2.17c-.44.31-.23.3-.17.6.24 1.29 1.54 2.05 1.8 3.31h.43zm-6.04 4.69c.09.11.38.11.49.26.47-.3.81-1.52.34-1.85-1.11-.66-1.31.98-.83 1.59m-160.56 1.58-.43.11c.35.77-.41 1.04-.43 1.12-.51 2.12 2.69.89 1.95-1.01l-.96.23-.13-.44Zm-2.82 2.6-.83.36-.03 1.81c.69.12.32-.24.43-.54.11-.32.61-1.46.44-1.63Zm-1.09 7.17c-1.4-.34-3.01.28-2.51 1.96l.62.18.68-.57.98.6.22-2.17Zm19.92 106.7c-.54-.44-1.29-.39-1.64.26.34.68 1.05.76.83 1.63h.87c-.37 1.11.5 1.52.45 2.28-.05.72-1.05 3.3-.47 3.7l.66.1c.06-.52-.09-1.14 0-1.64s.52-.4.7-.84c.46-1.15-.3-2.47.41-3.72l-.11-.34c-.83-.1-1.22-1.05-1.7-1.44Zm136.24 6.24c-1.12-.18-2.11.28-1.94 1.51l1.29.13c.38-.49.76-.98.66-1.64Zm-131.35 5.82c-.17-.3.17-.86-.26-.82.02.6-.06 1.22.02 1.83.03.24.12.93.52.78 1.42-1.18-.08-1.44-.28-1.78Zm1.73 2.82.08-.83-.99-.21.1 1.53h1.2c.19-.6-.32-.37-.4-.49Z" class="st0"/><path d="M399.35 286.51v1.3c.93.16 1.48-.47 1.09-1.3 1.98.37 3.55-.13 4.97 1.64.64.15.77-.63.93-.72.58-.35 1.12.28 1.59.37s.98-.08 1.47.05c.41.11 1.1.91 1.8 1.03s1.39-.12 2.06.11 1.01 1.28 1.62 1.64l.54-.65h.43c.16.6.92 1.02 1.14 1.58.11.27-.03.57.05.81.47 1.37 1.09.51 1.95.64.79.12.61.99.89 1.52 1.13 2.08 2.18 4.66 3.6 6.6.6.83 1.76.68 1.4 2.1l-1.85.65.43 1.51c.33.07.14-.27.36-.44.15-.11.42-.12.65-.28.26-.18.27-.85 1.15-.58.19.81-.48 1.78-.43 2.49.03.4.45.77.4 1.06-.07.37-1.67 1.51-1.72 2.86-.05 1.26.7.85 1.05 1.24.73.85-.3 1.47-.47 1.91-.27.7-1.29 2.85-1.37 3.19-.15.59.09 1.23-.16 1.79-.42.91-4.19 3.41-1.63 3.92v1.73c-.75-.15-1.39.7-1.9.83-.36.09-.62-.15-1.04.02-.14.06-1.74 1.49-1.84 1.63-.32.46-.2 1.23-.87 1.55-1.08-.04-2.22.13-2.7-.98-.59.27-.78 1.53-1.12 1.75-.57.36-1.43.04-2.02.31-.39.18-1.33 1.37-1.42 1.4-.89.27-.42-1.2-1.73-1.09-.68.06-.4.89-.9 1.06-.86.3-2.01.02-2.9.03.03-.6.07-1.23-.59-1.48l-2.9.52c-.64-.13-.49-1.5-2.06-1.41-.63.04-.84 1.19-1.9.82-.53-.18-1.8-2.84-2.32-3.36l-1.39.33c-.37-.13-.39-.99-.88-1.3s-1.17-.13-1.64-.53c-.71-.61-.42-2.18-1.67-2.91-.34-.2-.78.06-.9-.37.17-1.75-1.33-3.37-1.68-4.84-.49-2.05-.18-2.88-1.08-4.99-.47-1.09-.12-1.83-.32-2.69-.04-.16-.66-.1-.43-.88.04-.15.39-.12.43-.29.1-.46-.05-1.02.1-1.6.56-2.14 2.19-4.28 1.21-6.5.5.16.13.72.92.62 1.52-.2 1.32-1.84 1.03-3.01l-1.3.87c.1-.73-.46-1.16 0-1.95.49-.15.83.41 1.19.43.19 0 2.33-1.37 2.39-1.5.06-.14-.14-.91-.07-1.38.09-.56 3.25-2.68 3.9-3.05.53-.3 1.07-.61 1.7-.59v-.86c.9.12 3.13.01 3.44-1.02.28-.93-.33-1.55 1.35-1.37Zm11.25 9.17-4.85-2.87c-.26-.04-3.31.35-3.63.45-.45.14-1.65.84-2.37 1.14-2.03.84-1.31.37-3.17 0-3.98-.79-1.68 1.56-2.65 2.66s-2.24-.46-3.06.25c-1.01.87.15 3.26-.44 4.4-.85.04-1.23-.22-1.61.67l-.32-.43-.22 1.3.65.11-.54.98-.54-.43c-.54.87-1.47 1.96-.66 2.94.24.29.84.53.88.69.08.32.05 1.75-.01 2.12-.12.64-.77.93-.87 1.74-.07.59.08 1.73.38 2.24.24.4.5.18.73.41.66.67-.06 1.49 1.42 1.58l-.13 1.97c.65.27.27-.83.75-.21.58.75.46 1.83.75 2.24.17.24 1.18.25 1.56.88s.01 1.2.86 1.74c.57.36 1.37.29 1.48.37.08.07.07.51.24.72.19.23 1.14 1.22 1.32 1.3.83.38 2.15-.31 2.56.18.25.3-.22.75 1.04.81.86.04.38-.29.64-.65.51-.7 1.81.17 2.42.21.48.03.88-.23 1.27-.21s.77.46 1.06.4.83-.79 1.8-.83c.75-.03.99.37 1.5.42.97.1.93-.67 1.45-.92s1.31-.17 1.87-.43c-.04-1.33 1.03.18 1.99-.39l-.22-1.52c-.93-.04-2.34.25-2.61-.87l.97-.22.11.65c.57.19.79-.4 1.1-.53.36-.15 1.02-.06 1.2-.32.25-.35-.02-1.15.13-1.61.13-.39.98-.6 1.34-1.07.32-.41 1.72-3.31.88-3.43l-2.48.45-.03-1.28c-1.12.11-2.2-1.63-.65-1.52.34 1.67 1.36.74 2.37 1.21.53.24-.1.95.91.72l-.22-.87.65.65c-.27-1.63 2.32-1.26 1.97-3.15-.17-.89-2.26-.28-1.71-2.13.13-.45.95-1.63.99-2.39.1-1.89-1.23-3.2-2.97-3.4-.14 1.54-1.75 2.45-3.24 2.13l-.25-1.71 1.75-.09c.09-.06.52-1.43.55-1.64.02-.15-.3-2.58-.36-2.93-.08-.47-.66-.96-.43-1.64-1.13.14-1.24.55-1.55 1.49l-1.05-.19.4-.76c-.1-.46-.95-.48-1.02-.57-.14-.17.09-.72-.08-1.01M567.02 312.8c-.17 1.05.93 2.36.89 3.15-.05.98-1.5 1.35-1.33 2.5l1.08.11c-.61.72-.82.35-1.51.11-.02.51-.53.74-.7 1.15-.27.64-.23 1.41-.45 1.94-.82 1.98-1.8 4.08-2.67 6.02-.25.56-1.02 1.12-1.13 1.48-.21.69.15 1.55-.16 2.23-.23.51-1.64 1.47-2.06 2.07-.45.65-.89 2.26-1.02 3.07-.06.36.22.83.11 1.44-.18.99-1.09 2.32-1.38 3.41-.6 2.26-1.06 4.95-2.3 7.04-.43.72-2.95 3.58-2.99 3.98l1.17.94.63-1.33c.36-.3 1-.29 1.35.01l.74 1.09c-.41-.13-1.8.66-1.9.92-.14.37.35 1.47-.17 1.46-.35 0-.3-.64-.11-.86l-1.91.05c-1.02 1.23.38 2.54-.05 4.08-.78-.17-.57-2.09-.65-2.17-1.7-.04-1.63 1.63-1.06 2.81l1.28.12c-.36.31-.29.91-.58 1.21-.37.38-1.25.36-1.39.55-.42.59-.81 3.66-1.33 4.71-.31.62-1.16.99-1.38 1.68-.25.77-.01 2.37-.1 3.12-.51 4.03-2.39 8.51-1.93 12.62.08.76.7 2.11.63 3.04-.1 1.41-.26.72 0 2.41.09.6-.14 1.15-.09 1.65.1.95.94 1.7.52 2.84-.08.2-.73.34-.41 1.13-.07.78-1.66-1.08-1.74-1.5-.11-.59.07-1.31-.02-1.94-.07-.51-.42-.84-.44-1.53-.04-1.1.64-2.16.24-3.37l-1.83.64-.36-.53.22-.66c.72-.33 1.22 0 1.84.33 1.22-.99.07-1.78-.08-2.72-.18-1.14.1-2.61-.33-3.8-.16-.44-.96-1.08-.93-1.4.03-.4 2.19-2.14.37-2.82v-.43c.68-.14.5-1.52.45-2.18-.12-1.54-.72-3.18-.84-4.76.05-.22.46-.26.54-.41 1.89-3.15 1.7-6.07 2.3-9.55.13-.74.69-.36.6-1.02l-2.17.33c.9-1.86 3.62-.95 3.02-3.56-1.25-.11-2.28-1.19-3.24-1.97.57.05 1.26-.12 1.8.04s.93 1.19 1.57 1.26c1.04.11 1.55-.38 1.13-1.35-.12-.28-1.07-2.22-1.15-2.33-.27-.38-2.14-1.22-1.03-1.7 1.59-.69 1.3.23 2.37 1.02l1.38-.41-.44 1.19 1.3.55c1.03-1.83-1.41-1.74-.83-3.33.17-.47.79-.38 1.06-.73.61-.76.65-2.6 1.13-3.6.26-.54.84-1.05 1.15-1.67.47-.96.96-2.89 1.73-3.49.42-.33 1.19-.35 1.32-1.07.08-.44-.72-.97-.88-1.32-.88-1.96 1.82-.41 2.14-.46.59-.1.69-2.04 1.07-2.84.35-.72 1.47-1.68 1.56-2.1.09-.44-.29-.9 0-1.55.29-.64 1.76-1.72 2.01-2.34.07-.18.63-2.03.64-2.14.03-.35-.29-.82-.12-1.13.23-.41 1.78-.65 2.32-1.92.46-1.08 0-2.11.36-2.89.21-.46 1.17-.99 1.53-1.73.5-1.04.11-2.87 1.61-2.84ZM530.32 218.1c.05.66-.09 1.4.01 2.05.51 3.32 2.8 6.81 3.58 9.89.2.78 0 1.5.15 2.24.6 3 4 7.69 5.58 10.5 1.95 3.47 3.72 7.27 5.79 10.72.96 1.6.92.75 1.93.87.8.1 2.39 3.27 2.67 4.09.14.42-.02.9.17 1.35.25.57 2.31 2.39 2.82 2.82.86.73 1.59 1 1.2 2.17l.65-.22c0 .3-.21.56-.13.88.09.34 1.65 2.19 2.02 2.99.2.42.55 1.1.67 1.51s-.07 1.05.15 1.37c.16.24 1.05.28 1.31.86s.27 1.98.61 2.54c.08.13.45.19.56.41.57 1.09.28 1.87 1.76 2.37l-.43.1c-.24.45.93 2.11 1.19 2.61.18.34.19.82.37 1.15.36.65 1.27 1.13 1.52 1.73.32.76.06 1.63.35 2.47.24.68 1.69 1.5 1.12 2.91-.32.31-1.76-.44-1.97-.8-.33-.57-.1-1.14-.21-1.65-.08-.33-1.29-.88-1.4-1.03-.32-.41-.19-1.83-.69-2.19-1.04-.73-2.13 1.71-2.46 1.32-.47-1.44 1.29-2.07 1.63-2.83.38-.83-.96-1.6-1-.67l-.42-.08c-.15-1.2-.83-1.2-1.42-1.84-.7-.77-2.78-2.71-3.14-3.38-.39-.73-.63-1.89.41-1.97.62-1.28-.58-.41-.78-.39-.86.08-2.93-.72-1.96-1.4.31-.21.74.33.61-.9l.6-.03.03-1.07-1.41.65-1.13-.92c.36-.53-.55-3.59-.76-3.81-.29-.3-1.15-.3-1.56-.25-.85.09-.62.76-1.43.64-.08-1 1.03-1.35.54-2.39-.77-1.65-3.3-.23-3.37-2.71.71-.14 2.28.42 2.18-.85-.05-.59-1.23-1.92-1.94-1.43l-.34-1.08c-1.22-.14.17.85-.11 1.52l.43-.22v.65l-.66.12c-.5-.87-.85-1.03-1.85-1.15l-.32 1.03-.65-.32c.05-.52 1.51-1.66 1.53-1.77.16-1.02-.66-1.66-.98-2.26-.23-.43-1.34-2.16-1.39-2.32-.31-1.06.65-1.39-.48-3.2-.26-.42-1.92-2.56-2.23-2.88-.21-.22-.62-.14-.82-.43-.77-1.12-.39-3.32-.91-4.47-.25-.56-1-.9-1.15-1.46-.14-.51.32-1.31.09-2.04-.08-.25-.72-.45-.92-1.01-.26-.72-.32-1.92-.62-2.64-.26-.62-.78-.99-1.03-1.57-.42-.94-1.41-4.9-2.15-5.23-.21-.09-.6.18-.66.11.15-1.32.54-2.53-.21-3.75-.15-.25-.68-.25-.66-.69-.02-1.01.85-.56.86-.88-.9-1.49-2.57-5.06.66-4.45Zm26.71 56.69c.09-.87.04-1.83-1.08-1.74.01.74.09 1.92 1.08 1.74M268.15 233.73h-.63c.53 1.16-.24 1.28-.39 1.58-.12.25.12.57.07.85-.13.59-1.09.78-.54 1.71l-.54-.15-.29.29.18 4.42c-.78-.39-1.38.2-1.51.99-.14.85.55 1.51-.33 2.05l-.22-.43c-.38.3-1.35 1.26-.98 1.74s.46-.67.65-.43c.31.74-.13 1.35-.55 1.95-.21.29-.63.38-.7.49-.14.22-.08.93-.25 1.38-.21.54-.76.95-1 1.61-.12.33-.04.95-.13 1.06-.09.1-1.13.12-1.27.58.67.67.32 2.9-.59 3.1-.44.1-1.29-.47-1.61-.05-.49.66.33 1.15.44 1.73.11.56.04 2-.54 2.27l-.54-.43c.47 1.38-1.3 1.73-1.09 2.69l.45.24c.1.54-.9 1.37-1.33 1.52-.51.18-.75-.25-1.17.1-.62.51-.53 1.67-.77 2.4l-.65-.22c-.34.97-.91 2.12-1.53 2.93-1.79 2.33-4.88 3.64-6.38 5.99-.37.59-.34 1.25-.37 1.92l-.93.03-.14.43-.22-.65c-1.7-.07-.43 1.78.54 1.74.24.05.14.29.01.44-.67.77-4.06 1.32-4.42 2.97-.08.35.36.8-.02 1.05h-2.62c-.41-.42-.56-1.15-.39-1.7.23-.75 2.15-.95 1.7-1.46l-.65.22c.07-1.85 3.2-2.76 3.48-.65l1.08-.44c.17-.73-.61-.22-.83-.79-.1-.26-.5-2.32-.47-2.55.16-1.2 2.18-4.07 3.04-5.01.48-.52.32-.18.86.11.36-.74-.67-1.36-.66-1.61.04-.7.62-.76.87-1.33.89.6 1.4-.32.22-.42.93-1.02.45-2.21.92-3.42.28-.72 1.12-1.47 1.67-2.03.33-.33 1.01-1.02 1.31-1.29 1.18-1.09 3.39-2.43 4.28-3.64.15-.2.05-.62.37-1.04.55-.71 1.7-.41 1.86-1.64l.66.13c-.54-1.16.54-1.66.96-2.41.73-1.3 1.33-2.93 2.08-4.22.28-.48.74-.84.89-1.39l.63.2c-.32-.8.37-1.38.44-2.17l.65.22.03-1.07c.38.08.81-.2.84-.56.01-.13-.68.02-.44-.54l.65.22-.22-1.3.65.65-.21-1.95.65.22c-.02-.6-.3-.86-.1-1.51.03-.09 1-1.28 1.07-1.33.28-.21.88.15 1.2-.53.26-.54-.53 0-.64-.45.11-.27 0-2.84.42-2.48l.22.43.48-2.56 1.93-.15c.47.32.49.87.4 1.4ZM484.88 445.98c.16.09.39.88 1.08 1.2 1.48.67 2.33-.78 2.84.56-.85 1.75-1.18.99-2.46 1.01-1.48.03-1.77 1.31-2.45 1.5-.57.16-1.06-.24-1.63-.15-.97.15-3.62 1.59-4.72 2.03s-3.14.85-4.12 1.31c-.61.29-.99 1.29-1.42 1.63-.65.51-1.96.7-2.73 1.39-.83.75-1.06 1.87-1.5 2.85l-1.74-.02c-.67.93-1.69 1.58-2.4 2.4-.37.43-.51 1.36-1.18 1.4-.23.01-.65-.28-.76-.2-.06.04-.58 1.14-.61 1.25-.09.28.31.67-.16.92l-.86-.65-1.41 1.85-1.95-.11c.48 1.09-.49 1.06-.65 1.95l1.08-.43v.65c-.52.12-1.21-.22-1.68-.06-.65.23-.81 1.06-1.3 1.31-1.04.53-3.8-.16-3.32 2-.7-.04-1.81-.12-2.45 0-.17.03-2.05 1.93-2.32 2.06-1.17.55-.93-1.51-1.14-2.12-.16-.47-.94-1.12-.82-1.9l2.03 1.29 2.29-1.54c-.65-1.82 1.16-2.67 1.9-3.85.47-.75.61-1.7 1.08-2.41.32-.48 2.15-1.76 2.69-1.89.48-.11.61.3.76.3.11 0 .82-.9 1.41-.6.17-.71-.63-.32-1-.63-.17 1.04-.93-.09-.95-.56-.04-.84 1.52-2 2.38-1.85-.1 2.42.58.39 1.08-.12 1-1.03 2.02.3 2.83-.21.21-.13.66-.98 1.08-1.31.53-.42 1.27-.55 1.74-1.08-.24-.15-.94-.37-1.16-.3-.4.11-.39.98-1.01.85.27-1.71 1.66-3.32 3.48-3.38.9.95.11 1.72 0 2.73 1.56-.02 2.21-1.07 2.37-2.51 1.15-.45 1.97.35 2.94.78l.87-2.15c1.07.35 2.49.49 3.15-.57v-.31c-.93-.11-1.09-1.19-1.08-1.96 1.34-.2 1.25.86 1.66 1.76l2.25.2c.18-.16-.84-1.43-.07-1.97s.84.27 1.26.66c1.52 1.39 1.23-.04 1.74-.65.23-.27.76-.4 1.1-.65s.18-.85.85-.66l.78 1.53 1.15-.21c.55-.89.87-1.19-.07-2.07.23-.36.92-.47 1.26-.28ZM244.71 340.38c-.12-.33.27-.94.02-1.36-.34-.56-1.57-.61-1.53-1.8l-.66.13c.6-1.43-.15-1.16-.6-1.9-.19-.32-.83-2.2-.49-2.44 1.15-.25 2.74 1.48 3.45 1.64.64.14 2.12-1.11 1.73.94l-.85.39c-.55 2.19 1.93 1.82 1.98 3.55h.75c.02.63.75 3.55 1.59 2.99.08-.05.11-.41.25-.5.31-.2 1.82.12 2.07.55l2.39 6.95.25.2c1.36.03.94-2.31 2.59-1.3.46.65-.37 1.48-.31 1.83l1.49 1.66c-.54-.13-2.33-1.63-2.34-.6 0 .16.36 1.99.44 2.07.09.1.44.05.59.17.25.21.13.58.45.53.2-.41.11-1.38.43-1.63.58-.46 2.93-.4 3.7-.1-.04.42-.75.15-.98.64-.19.42.61 1.11 0 1.53l-.34-1.28c-1.26-.83-.85 1.68-.59 1.89.12.1.56.03.81.15.84.4.29 1.42-.31.54l-.22.21c-.87 1.78.25 1.44.72 2.32.68 1.29.12 2.1 2.19 2.49.46 1.57-1.78 2-.62 3.5.23.3.7.31.83.74.15.49-.02 1.14.23 1.73.19.44.64.49.67.65.12.71-.44.81.37 1.82.28.35.95.42 1.11 1.24.35 1.68-1.56-.1-1.69 1.7-.08 1.11.59 1.1.81 1.55 1.22 2.47.82 4.58 1.18 7.07.14.98 1.07 1.52.82 2.62-.01.06-.8.89-.85.92-.75.38-1.35-1.01-1.48-1.58-.52-2.18-.68-4.03-.95-6.22-.49-3.95-2.74-6.25-3.42-9.82-.07-.38 0-.79-.03-1.17-1.67.46-1.89-1.76-2.44-2.87-.87-1.76-2.39-2.29 1.15-2.44.83-1.1-1.99-1.56-2.6-1.53-.66.04-1.91 1.03-1.5-1.03.14-.71 1.13-.86.83-1.24-.02-.03-.42-.06-.65-.32-1.93-2.12-3.74-4.29-5.72-6.34-.11-.11-.46-.07-.67-.3-.65-.7-.44-2.03-.78-2.65-.14-.25-.56-.27-.63-.52-.3-1.04 1.16-1.59.8-2.96-.08-.32-1.27-1.93-1.57-2.13-.36-.22-1.72-.49-1.85-.86.11.31.2.64.22.97-.66.51-1.24-.71-1.11-1.27l.67-.36c-.16.35.19.58.22.65ZM346.36 454.62l1.3-.22c-.3-.94.13-1.55.98-1.95 1.02 1.03-.31 1.67-.33 2.6l.98.43c.39-.13.14-1.05.65-.86.85.32-.13 1.55.99 2.06.81.37 1.11-.26 1.62-.76l.76.54c.07-.92-.61-.88-.83-1.12-.63-.67-2.26-2.34-.91-3.01 1.56-.77 1.15.78 1.35 1.48.21.74.7.4 1.12.46.18.03.35.26.47.26.28 0 .94-.69 1.41-.56-.18.93-.23 1.39.49 2.1.05.05.27-.08.38 0 .4.26 1 .51 1.05.55.08.06.88 1.59.95 1.65.18.15.72-.04.95.26l-.12.66c.91.35 2.39-.51 2.97-.28 1.55.62-.33 2.17 1.25 2.24 1.57-2.18 2.19.85 3.06 1.72.21.21.62.17.7.27.24.29.31 2.36.9.05h1.1c1.05.6-.1 1.69.09 2.07.05.1 1.51 1.49 1.67 1.6.75.5 1.86.37 1.74 1.19l1.5.25-.18-1.04c2.93-1.66 1.9 1.62-.25 1.49l.22 2.15c1.69-.51 1.61.51 2.58 1.43.35.33 1.28 1.18 1.64 1.4.62.4 2.24.72 2.24 1.37-1.83 3.67-2.05 1.17-3.54-.07-.56-.46-1.91-.94-2.29-1.4-.29-.36-.26-1.03-.57-1.22-.65-.42-1.83-.03-2.53-.24-.37-.11-.52-.58-.8-.7-.18-.08-.52.12-.66 0-.2-.17-.14-.57-.27-.72-.13-.13-.52-.1-.71-.26-.34-.28-.3-.97-.67-1.09l-1.9.44-.93-1.5-2.68-.15-1.09-1.19.87.22.34-2.39c-.96-.91-2.09-.52-3.22-.7s-3.92-2.3-4.92-3.12c-.45-.37-.35-.96-1.2-.97-.71 0-1.68.3-1.2 1.1l-.87-.22-.03.84c-.66.34-1.27.4-1.68-.29.43-.67.8-1.24 1.71-1.2.18-.17-.9-1.11-1.11-1.19-.36-.14-.65.07-.86-.01s-.34-.52-.75-.53c-.35 0-.72.41-.88.39-.15-.01-1.52-1.72-1.8-1.9-.91-.58-2.56-.63-3.52-.98-.27-.1-2.44-1.29-2.51-1.41l.27-1.1c.48-.39 1.04.64 1.37-.09.04-.09-1.2-.5-.32-.55.47.1 1.6.36 1.91.64s.3 1.21 1.45 1.1l.45-1.4c-.78-.29-1.06-1.16-.12-1.43 1.79.68.32 1.62.76 2.83ZM370.68 155.77c.26.72-.52 2.37-1.09 2.72-.43.26-1.24.03-1.8.15-.79.17-4.74 2.8-5.46 3.45-.09.09-.75.93-.76.99-.05.34.77.64-.02 1.06-.88.47-.59-.56-1.15-.52-.79.47-2.05.81-2.42 1.73-.1.25.09.54.05.6-.32.53-1.8.19-2.25.91-.22.37.31.81-.21 1.08-.81-.71-3.49-.51-4.22.11-.41.35-.13 1.03-1.14 1.27-.75.18-1.35-.76-2.28-.37-.5.21-.8 1.57-1.51 1.77-.73-.04-1.43.19-2.14.27-.51.06-1.71.2-2.17.23-.75.04-1.2-.53-1.93-.45-.67.07-.89.62-1.38.81-2.28.89-4.08.94-6.36 1.24-.8.1-1.23.81-2.05 1.01-.57.14-2.24-.09-3.04-.02-.73.07-1.44.47-2.17.44-.58-.02-2.57-.75-1.73-1.33 1.83-.37 3.98-1.1 5.74-.42-.08-1.27.57-.91.66-.98.52-.44-.1-1.21 1.62-.96 1.42.21 3.76.28 5.18-.27.38-.15.37-.68.73-.79.55-.18 2.2-.04 2.47-.15.77-.3 2.26-1.62 3.45-1.96.87-.25 2.45-.12 3.13-.35.34-.11.36-.6.57-.72.13-.08 2.35-1.1 2.56-1.16.25-.08 1.47-.15 1.8-.39.22-.17.29-.64.56-.71.23-.06.78.31.95.19.11-.07.2-1.73.97-2.18.9-.54 1.42.11 1.93.03.09-.02 1.25-1.27 1.36-1.3.3-.08.64.25.95.1.57-.27.47-1.42.79-1.66 1.06-.79 1.53 1.11 2.34.87.1-.03 1.06-1.23 1.44-1.4.89-.39 1.33-.29 2.56-.96.24-.13.7-.04 1.01-.25.43-.29.64-2.43 1.34-1.06.83.04 1.39-.58 2.14-.9.35-.15.83-.02.99-.1.28-.15.9-1.22 1.4-1.61.66-.51 2.94-2.03 3.33-.71.5 1.67-3.43 3-4.74 2.67ZM386.59 404.84c.42.25.84-.33 1.02.83 1.27.16 3.27-.46 3.06-2.07h2.16c-.89 1.02.65 2.17.66.22 1.12-.2 1.65 1 2.27 1.73l.67-.88c.41 0 .83-.02 1.24.06.56.11.51.46.76.58.82.38 2.04.98 2.81 1.27.98.37 1.87.48 2.81.89l1.59-.84c-.09-.25-.42-1.43-.48-1.48-.19-.15-.68.16-.61-.25.94.33 1.6-.81 2.33-.5 1.14.49-.83.45-.59 1.14.49.16 1.08.25 1.09-.43h.32l1.31 1.73c1.26-1.02 2.29-2.35 4.08-1.95.18.04.17.36.3.43.45.22 1.58.99 1.68 1 .31.05 2.01-.54 2.09 0l-.25.95-.53-.14c-.36.91-1.01.4-1.37.61-.07.04-.44 1.25-.9 1.38l.43.11-.33.43-.64-.23c-.15-.62-.45-1.02-1.12-1.07-.19-.02-1.98.19-2.12.24-.51.17-.12 1.08-1.12 1.08-.45 0-.48-.83-1.19-1.02-.57-.16-1.18.25-1.84.13-.46-.08-.6-.51-.92-.61-.92-.28-5.32.34-6.41.67-.4.12-.71.59-1.15.58-.72-.02-1.1-1.06-1.52-1.1-.78-.08-1.25.38-1.95.46-.47.06-3.2.05-3.65-.05-.64-.14-1.12-.94-1.81-1.24-1.78-.78-3.85-.52-5.6.15-.71-.13-.91-1.92-1.87-1.26-.56-1.03.44-1.53.45-2.28 0-.59-.54-1.03-.45-1.63.53.34 1.2.42 1.73.77.41.27 1.14 1.31 1.45 1.37.38.07 1.1-.77 1.82-.29.13.09.15.42.27.49ZM438.48 157.26c.09.07.67-.25 1.25-.08 1.23.36 3.13 2.16 4.56 2.53l-.1.62c.41.32.98.28 1.41.55.52.31 1.5 1.52 1.97 1.72 1.91.82 3.95 1.87 5.75 2.67.1.04.5-.09.81.06 1.06.5 1.47 2.63 3 1.73l-.43-.65 1.29.03c-.12.83.47.6.88.95 1.34 1.16-1.01 2.11-1.95 1.84l.17.51-.6.35c.39-.64-.44-1.72-1.03-1.91-.35-.11-.83.04-1.15-.15-.28-.17-.32-.88-.78-1.18-.76-.49-1.83-.05-2.68-.36-.62-.22-.95-.98-1.4-1.31-.38-.28-.98-.38-1.41-.66-.31-.2-.36-.69-.88-.86-.77-.25-1.66.28-2.38.02-2.23-.82-3.5-4.42-6.23-4.21-.31.02-.49.34-.68.37-.24.04-.68-.51-1.15-.18l.18-1.49c-.85-.46-1.83-.87-2.65-1.37-1.2-.73-.99-.56-2.39-1.08-1.23-.45-2.98-2.24-3.82-2.5-.08-.02-1.54-.1-1.62-.08-.26.03.03.53-.34.43-.23-1.13.15-3.73 1.74-2.93.3.15.54.81.86 1.1.74.66 6.4 3.92 7.4 4.33.6.24 1.21.06 1.89.5.39.25.44.62.52.68ZM385.05 479.14c.09.07.89-.32 1.5-.11.78.27 1.69 2.06 2.39 2.4.15.07 1.79.72 1.89.74.86.18 1.26-.5 1.99.82.31.57.13.93.69 1.48 1.26 1.24 2.45.42 3.46.88.49.22 1.05 1.55 2.1 2.03 1.11.5 2.25.17 2.68 1.66-.43.54-1.14.23-1.75.42-.42.13-.67.62-1.01.73-1.32.4-1.39-.85-2.48-1.56-2.08-1.37-5.23-3.06-7.6-4.34-1.04-.57-3-.79-3.56-2.09-.2-.45-.01-1.04-.15-1.27-.03-.06-.6-.22-.82-.37-1.43-1-3.04-1.97-3.7-3.69-.11-.29.02-.38.31-.31 1.11.26 2.9 1.15 3.72 1.94.19.18.28.59.34.64M234.72 286.3c.23.6-.53 1.14-.41 1.58.1.37 1.9 2.07.54 2.3-.17.03-.39-.13-.71-.02-1.18.38-2.25.81-1.04 2l.54-.65c.23.75.53 1.52-.53 1.53-1.33 0-.98-1.21-1.52-1.26-.73.32-1.71.59-1.97 1.45-.17.59.03 1.24-.21 1.75-.16.36-1.21.89-1.48 1.36-.51.88-.43 2.19-1.55 2.33l-1-2.48 1.31-1.86-1.08-.22c.72-.65 1.11.02 1.38-.02.83-.12 1.05-1.79 1.35-2.35.93-1.75 2.29-3.3 3.14-5.11.79-.63 2.28-.23 3.25-.34ZM435.62 481.23c.04.28.52.76.42 1.17-.28.39-2.98 1.59-3.54 2.01-.49.37-1.13 1.59-1.66 1.81-.61.26-2.08.11-2.55.38-.09.05-.3.58-.59.82-.62.52-1.27.74-2.03.39-.49-.48.44-2.17.75-2.37.43-.27 1.11-.1 1.59-.31.57-.25.71-1.17 1.1-1.51.55-.48 1.56-.36 1.96-.7 1.09-.91-.92-2.11-1.1-3.11 1.85-.36 1.93 1.51 3.15 2.12l.77-1.16-.66-.64c1.47-.47 1.5-1.25 2.38-2.28.1 1.06-.14 2.34 0 3.37ZM231.79 324.52c-.41-.13-1.27-2.09-1.63-2.5s-1.14-.66-1.4-1.2-.15-1.32-.34-1.77c-.18-.41-1.47-.73-1.05-1.98.29-.87 1.81.12 2.03.51.17.31.07.74.23 1.07.27.59 1.03.57 1.29.88.64.77-.22 1.99 1.89 1.23.46-.17.74-.62 1.26-.58l-.37 1.42c.22.63 1.12.49 1.47.91.1.12.85 2.44.85 2.57 0 .91-.89.36-.65-.55h-3.58ZM412.81 147.07l.64.35-.34.97c-.72.16-3.57-1.86-2.33-2.82 1.69.42 3.68.04 5.29.51.27.08 2.39 1.16 2.59 1.32.39.31.87 1.47 1.24 1.6.58.19 1.06-.43 1.68-.41 1.2.04 3.5 1.33 3.08 2.82s-1.61-.34-1.97-.66c-1.37-1.2-2.25-.44-3.41-.93-.59-.25-1.27-1.02-1.93-1.33-1.27-.61-2.82-.88-4.04-1.83l-.5.39ZM560.36 432.61c.43.38 1.24.91 1.81.89.32-.01.57-.35 1.03-.39.35-.03 3.68 0 3.87.04.24.06 1.45 1.29 2.32 1.61.38.14 1.68-.02 1.53.64-1.08 1.25-2.03.07-2.94-.09-1.12-.2-2.23.59-2.15-.89-1.02-.69-2.1.12-3.05.23-1.53.19-2.66-.23-4.14.86-.78.57-.82 1.73-1.62 2.18l-.65-.76c.97-.57.88-1.45 1.25-2.22.18-.38.61-.64.75-.98.21-.49.16-2.68 1.04-2.23.41.24.65.87.94 1.12ZM523.58 163.15h-.87l.44 1.95.95-.42c.73.12 1.98 4.53 2.48 5.36.6.99 2.1 1.51 1.56 2.67-1.55-.46-2.65-2.19-3.52-3.54-1.08-1.68-1.29-2.2-2.65-3.86-.29-.36-.38-1-.62-1.23-.52-.53-2.18-.27-1.57-1.58.2-.42.91-.63 1.2-.98.39-.47.54-1.44 1.19-1.85.73.51.39 1.38.59 2.01.15.5 1.03.72.83 1.46ZM466.1 170.9c.85.67 1.68.32 2.41.52.4.11.68.4 1.03.49.88.22 1.79.31 2.66.56l.03 1.13c-.35.06-1.59.57-1.75.56-.37-.02-2.53-1.46-3.05-1.45-.67.44-.82 1.06-1.83.87.34-.73-.25-1.09-.79-1.48-1.05-.75-1.29-.73-2.3-.93-.58-.12-.87-.82-1.79-.63l-.13.63-.85.03c.24-3.19 1.92-1.99 3.81-1.53.44.11.98-.08 1.46.06.56.16.78.93 1.1 1.18ZM243.4 186.4l.1.87c.96.71 2.06-.12 2.85-.21 1.81-.21 3.39.1 4.98-1.31 1.01 1.13-.07 1.45-.39 2.01-.47.82-.08 2-.91 2.5-.56.08-1.42-2.24-3.01-2.06-.31.03-.62.34-1.11.38-.41.03-3.42.02-3.66-.04-.32-.07-.69-.71-1.03-.93-.84-.55-1.59-.8-2.6-.88-.61-.37.2-.97.77-1.01 1-.06 2.67 1.17 4.01.68M501.69 443.28c.22.13.56.02.82.05.02 3.48 1.39 1.2 2.29 1.08.4-.05.93.27.96.23.07-.08.5-2.09 1.32-.99l.2.77c-2.25-.24-1.7 2.37-3.92 1.87-.92-.21-1.44-1.2-2.48-1.01-.16 1.56-1.03 1.35-2.36 1.32l-.57-1.21-1.74-.1.76-1.95 2.16 1.31c.59-.73.9-2.4 2.16-1.94.28.1.28.5.4.58ZM404.56 486.98c.59.95.33 1.19-.18 2.1.24 1.2 1.7.62 2.36.81.5.14 1.36 1.09 1.62 1.13.22.03 2.34-.38 1.76.74-.4.77-1.33.22-1.96.21-2.52-.04-2.53.13-4.85-.8-.7-.28-1.77.16-1.47-1.38l1.55-.41c.19-.82.02-2.27 1.18-2.4ZM539.36 177.34c.15.11.22.41.4.57 1.52 1.36 1.88 1.24-.21 2.57-.8-.26-1.16-1.35-1.73-1.71s-2.19-1.04-2.83-1.18c-.6-.13-1.64.44-1.84-.98l.43.22c.08-.62.15-.96.84-.89.17-1.15.15-1.42-1.03-1.53l-.02-1.06c.64-.64 2.34 1.8 1.31 2.28l.21.22c.72.07 1.47.97 1.95 1.11.85.25 1.37-.46 2.54.38ZM327.03 452.88v-.42c.41.22.61-.85.11-.66l-1.31 1.3-1.3-.87c-.57-.01-.77 1.18-1.91.84-1.44-.67-.06-2.82 1.04-2.81.8 0 1 1.18 1.97 1.33 1.25.19 3.99-1.02 4.88.53.46.8.18 1.45-.67 1.74-1.66.57-1.32-.91-2.81-.97ZM269.47 224.18c-.18-.97-.59-1.89-1.03-2.77-.12-.24-.92-1.22-1-1.4-.52-1.22.35-2.23 1.05-.82l.46-.85 1.17.2-.63-1.59c.99-1.13 1.97-.44 1.67 1-.06.3-.39.6-.38.92.01.29.37.55.43.88.18 1-.51 1.26-.8 2-.31.81-.11 1.98-.93 2.43ZM484.75 175.91c.31.19 3.66.08 4.53.36.58.19 1.17 1.32 1.58 1.8 1.42-.12-.53 1.69-1.1 1.42-1.06-.51-.12-2.47-1.91-2.48-.9 0-1.85 1.32-2.57 1.09-.45-.15-.46-.98-.79-1.18-.63-.37-2.32.06-2.77-1.08-.08-1.06 1.97-.83 2.62-.5.31.15.32.49.41.55ZM240.09 331.76c-.15-.15-1-.41-1.38-.79-.26-.26-1.85-2.38-2-2.67-.79-1.58 1.03-2.47 2.14-1.92.31.15 2.3 4.44 2.37 5.02.05.48.15 1.06-.31 1.39-.68-.14-.63-.81-.83-1.02ZM320.97 367.5c.21.14.81-.08 1.22.09.22.09 1.48 1.43 1.14 1.9l1.53-.12c.68.53-.34 1.28-.2 1.62.38.35 1.94 1.33 2.09 1.6.13.24 0 .63.11.77.04.05 1.04.26 1.04.68l-1.73.34c-.71-.29-.53-1.13-.7-1.37-.08-.11-1.91-.85-2.34-1.25-.14-.13-.89-1.56-.99-1.83-.27-.7.11-1.58-.82-2.03-.37-.18-.89.15-1.13-.37l-.33-2.18c.66.13.94 2.03 1.11 2.14ZM568.51 312.33l-1.06.16-.23-1.4-2.14-1.01.75-.7c2.34 1.48 1.46-.56 1.73-1.8.11-.51.88-1.34.93-1.66.08-.56-.63-1.55.6-1.81.74.56.09 1.43.1 2.07 0 .59.25 1.08.23 1.72-.04 1.55-.84 2.92-.91 4.43M276.17 467.03c.14.09.28.87.22 1.12-.1.38-1.3 1.32-1.45 1.83-.13.46.04.97-.1 1.42s-.95 3.07-1.68 2.55c-.16-.82-.55-1.6-.43-2.48.1-.78 1-1.57 1.04-2.01.03-.37-.92-1.26-.83-1.7.12-.58 1.76-.22 2.24-.34.07-.02.34-.8.99-.4ZM476.88 174.88l.33-.65.22.43c.78-1.8 2.19.16 2.43.21.48.1 1.08-.05 1.59 0l-.33 1.3-.11-.65-.53.41c-.96-.03-2.34-.21-3.28-.2-.58 0-1.26.39-1.91.22l-2.09-2.53.34-.49c1.73-.32 2.07 1.29 3.33 1.93ZM528.79 217.45c-1.89-.58-1.36-1.79-1.81-3.29-.16-.53-.71-1.11-.79-1.61-.2-1.29 1.44-2.16.86-3.78 2.13-.05.97 1.92.87 3.15-.13 1.67 1.67 3.68.86 5.54ZM543.13 455.71c-.22.85.24 1.98.21 2.7-.02.46-.43.92-.41 1.32.03.53 1.26 2.08.09 2.28-.29.05-1.23.07-1.49.01s-.22-.55-.38-.75c-.19-.24-.58-.31-.63-.5-.07-.24-.05-1.17 0-1.43.04-.17.39-.18.49-.42.14-.32 1.29-4.03 2.11-3.2ZM267.95 392.07c-.77-.11-1.57-.12-2.05-.88-.19-.29-.85-2.72-.94-3.19-.33-1.76.36-1.24 1.36-2.23.25 0 1.51 2.67 1.38 3.1-.09.33-.63.5-.62.91 0 .31 1.09 1.99.87 2.29M544.15 177.51c.54-.14.79.5 1.21.68.51.22 1.9.25 1.91.93 0 1.3-2.32.48-3.06.65-.36.23.52 2.97-.53 2.72-.2-.05-1.7-3.24-1.62-3.77l.19-.25c.94.22 1.51-.85 1.9-.95ZM269.76 228.89c.13.25 1.09.72.36 1.5l-2.17-.34c.78 2.01-1.72 1.94-1.3-.1.09-.46.53-.63.56-.86.04-.29-.21-.72-.09-1.27.11-.54.86-1.18 1.16-1.67.3-.01 1.26 2.31 1.49 2.75ZM223.86 301.61c.13-.88.95-1.74 1.01-2.72l.95-.12.21 1.21c.41-.06 1.86.15 1.95.55.26 1.09-1.76.05-1.96.2-.53.5-.21 1.32-.37 1.8-.27.78-1.15 1.04-.79 2.25l-.99.21c.11-1.06-.15-2.35 0-3.37ZM266.87 164.89c.01-.52-.56-1.02-.61-1.46-.06-.46.27-.93.18-1.46-.09-.56-1.41-1.46-.3-2.26 1.27-.57 2.91 1.01 2.69 2.24-.03.14-1.21 2.41-1.34 2.58-.18.26-.25.43-.62.36M420.19 488.96c.04.05 0 1.27-.03 1.33-.13.45-.84.76-1.06 1.13-.29.48-.09 1.43-1.13 1.17-.13-.03-2.15-1.34-2.22-1.49-.77-1.48 1.32-.59 1.76-1.51l.95.42c-.53-.99 1.26-1.65 1.73-1.06ZM272.48 211.18c.38 1.32-.76 1.53-1.22 2.47.46.47 1.54 1.97.49 2.07-2.22.21-3.42-7.04.72-4.54ZM320.02 174.5c-.3-.19-1.06-.14-1.44-.3-.05-.41-.17-1.59.32-1.7.89.6 2.87.44 3.36 1.17.79 1.2.21 2.33-.77 3.15-.41 0-1.12-2.1-1.47-2.33ZM557 179.63c-1.48.23-2.95-.38-4.43-.2-.83.1-1.07.79-2.13.03-.36-.28-.14-1.13.41-1.11 1.8.08 4.11-.54 5.86-.22.83.15.55.9.29 1.49ZM308.12 174.02l-.21.76c-2.14-.93-2.1 2.55-3.92.87-.87-.8-.67-1.71.24-2.38 1.08-.79 2.85.3 3.88.75ZM337.76 454.07c-.19.16-.04.42-.64.36-.66-.74-.64-.2-1.3-.23-.44-.02-.84-.28-1.29-.22s-1.3.73-1.95.6l-.59-.92c1.28-2.4 4.01-.51 6.11-.44.51.46-.02.59-.35.86ZM542.26 455.05c-.54-1.21.48-1.43 1.22-2.14 1.17.34 2.05 1.94 3.33.93.9-.24.16 2.62-.32 2.73-.96-.58-1.41-1.61-2.66-1.91-.69-.17-.92.49-1.56.39ZM423.78 486.12c1.78 1.24-1.02 5.5-2.51 4.46-.81-1.93.15-1.72 1-2.5.5-.46.76-1.55 1.51-1.96M568.7 298.4c-.11.12-.33.17-.49.22l-.44-.38c.42-1.29-.96-1.34-.1-2.38-.78-.01-1.45-1.32-.7-1.74.96-.55 1.27.35 1.89.87.52.44 1.26.11.93 1.36-.03.11-1.01 1.98-1.09 2.06ZM306.17 452.45c.18-1.49 1.42-1.02 2.61-1.08 0 .44-.58.99.22.87l.55-1.74c.43-.14.24.35.48.42.26.08.59-.03.93.12 1.25.54.38 2.2-1.02 2.24-.51.01-.47-.69-.85-.81s-1.41.4-1.94.38c-.38-.01-.64-.27-.97-.4-.09.79.2 1.31-.99 1.51-1.68.28-2.26-.57-2.05-2.16 1.36-.26 1.97.21 3.04.65ZM443.85 476.1c-2.14.89-1.28-1.22-1.88-2.52-.19-.41-1.02-1.37-1.36-1.69 1.58-2.48 1.66.22 2.2 1.06.23.36.81.48.96.78s.18 2.25.08 2.37M333.92 367.81c.22.28-.17.77 1 .72.99-.05 1.31-1.58 2.82-.37.43 1.88-.9 1.22-1.69 1.31-.52.06-1.62.51-1.94.42-.25-.07-.52-1-1.21-.86l.21-.42-.66-.11c-.27-1.38.92-1.4 1.48-.69ZM380.87 149.92c1.1 1.65-3.49 3.22-3.89 2.81-.2-2.46 1.93-2.77 3.89-2.81M514.89 441.81l-.64 1.43-.66-.13c.21 1.41-.79 1.05-1.41 1.53-.34.27-.83 1.44-1.2 1.64l-1.74-.78.15-.43c1.02-.46 1.25-.86 2.45-.44l.09-1.53c1.29-.09 1.74-1.16 2.95-1.29ZM568.07 293c-1.92.41-1.39-.42-2.04-1.26-.39-.5-1.59-.78-1.4-1.75 1.65-.8 4.4 1.23 3.44 3.01M279.36 177.59c1.36.13 1.18 2.27-.25 2.44-2.74.32-3.06-2.76.25-2.44M274.9 201.38c.09.6-.07.33-.32.43-.46.19-1.87.64-2.25.4l-1.34-3.11c1.69-1.25 2.06 2.36 3.91 2.28M225.38 309.32c0 .62-.2.99.45 1.22-.68.98.71.88.85 1.5.11.49-.87.69-1.2.74-.42-.34-2.06-1.3-2.06-1.61 0-.37 1.27-2.32 1.96-1.85M336.15 243.3c.16 1.25-1 4.09-2.56 2.99-1.05-.74 1.53-3.33 2.56-2.99M312.04 354.5l-2.68.41-.55-1.13c1.09-1.56 3.58-1.7 3.23.72M544.86 448.97l-1.42-.43c.16-1.5-1.56-1.32-1.16-2.8 2.77-1.14 1.94 1.5 2.58 3.23M522.03 191.85c.31.8-.28 1.34-.44 1.99-.14.57-.17 2.85-1.15 2.53-.85-.27 0-1.74.06-2.11.09-.55.04-2.48.62-2.65l.92.24ZM228.64 315.84c-1.04.47-4.34-.94-3.59-2.18.28-.46 1.24-.35 1.62-.09.25.17.32.56.55.75.57.45 1.56.67 1.41 1.52ZM495.41 176.98c.5.26 1.21.18 1.57.72.36.8-2.53.78-3.01.62-.62-.21-.62-1.37-.58-1.92.49.06 1.16-.12 1.6.04.27.09.3.49.42.55ZM368.92 411.6c-1.83.65-2.31-1.87-2.15-3.24 1.2-.4 2.79 2.52 2.15 3.24M298.3 173.19c2.55-.52 2.74 1.62.36 1.9-1.93.23-2.25-1.51-.36-1.9M455.82 402.06l-.62 1.16c.59.68 1.57 1.07 1.71 2.09l-2.03.2c-1.07-1.07-.36-2.24-.12-3.44h1.07ZM437.08 479.41c1.17-.33 2.39 2.41.77 2.75-1.75.37-1.69-2.49-.77-2.75M544.33 400.32c.67-.15.97 2.03 1.15 2.47l-1.56.97-.76-.9 1.17-2.53ZM258.54 268.99c.44.48.72 1.61.07 2.01-.18.11-1.65-.14-1.85-.34-.83-.8.53-3.05 1.78-1.67M532.67 176.15c-.65.41-2.73-.55-3.22-1.16.8-.54 1.37-.17 1.41-1.41.51.28 2.72 2 1.81 2.57M346.08 182.86c-.17.17-.56.3-.81.17-1.17-.83-.86-2.12-.87-3.37.29-.33 2.75 2.1 1.68 3.2M499.88 247.39l-2.29.65-.47-.33c-.12-1.51 1.2-2.16 2.59-1.71l.17 1.4ZM441.43 396.47c.19.2.38 1.04.25 1.23-.52.15-3.07 1.17-3.24.34-.13-.68 2.33-2.26 2.99-1.57M317.23 173.6c.66 1-3.28 3.1-2.81.53.19-1.05 2.58-.87 2.81-.53M340.71 447.89c.26.89-.42 1.1-.63 1.47-.41.73-.73 1.81-1.75 2.13-.69.22-1.37-.43-1-1.01.35-.55 3.05-.76 2.61-2.39l.77-.21ZM412.99 490.29c.1.06.11.47.4.57.52.17 1.43-.08 2.04.25.86 1.29-4.32 2.01-3.26-.87.26.03.59-.08.82.05M313.53 454.16l-.85-.07c-.3-.18.08-.58-.02-.72-.08-.11-.51-.11-.61-.4-.11-.33.28-1.29-.02-1.82l.88-.11c.93 1.18 1.51 1.62.62 3.12M263.31 151.02c.68-.13 2.4 2.15 1.61 2.69-1.32.91-2.86-2.45-1.61-2.69M544.57 467.9c1.28-.66 2.46 2.5 1.48 2.79-.91.11-2.53-2.45-1.48-2.79M391.75 146.86c-1.2-.28-2.63.82-3.47-.33.77-1.22 3.94-1.75 3.47.33M251.44 442.46c-.11.98-4.58 2.57-4.78 2.39 0-.42.38-.94.71-1.15.82-.53 3.07-1.08 4.07-1.23ZM303.64 270.94c.33-.39 1.2-.69 1.67-.4.43.26.46 1.7.1 2.08-1.02.67-2.49-.87-1.78-1.68ZM312.69 332.35c1.24-.17 3.37 2.06 1.96 2.94-1.18.74-1.51-2.35-1.96-2.94M522.2 188.36c1.16-.36 3.21 2.92.85 2.6-.51-.07-1.63-2.36-.85-2.6M332.04 382.53c1.26-.84 1.89 2.68.71 2.99s-1.09-2.74-.71-2.99M353.31 230.26c.05-1.3 1.07-2.1 2.3-2.17.78-.04 1.04.55.38 1.05-.42.32-2.25 1.52-2.68 1.11ZM383.39 148.05c.24 0 .77.15.89.33.18 1.41-1.11 1.51-1.98 2.17-.85-.79 0-2.5 1.09-2.5M432.66 430.87c.9.95 1.34 1.47-.18 2.25-.77-.92-1.17-1.81-.98-3.04.77-.16.8.41 1.17.79ZM526.58 205.77c.07.04.25.51.46.72.26.25 1.36.65.67 1.08-.96.61-3.02-.2-2.52-1.65.19-.26 1.12-.31 1.39-.16ZM301.39 452.45c1.08 1.27.69 3.02-1.08 2.82l.43-.22v-.43c-.69.02-.66-.84-.66-1.37zM380.39 415.04c-.47.51-2.11.93-2.12-.26-.03-2.27 3.34-1.06 2.12.26M521.56 147.32c1.29-.32 1.92 3.16-.02 2.56-.49-.17-.95-2.32.02-2.56M270.12 400.54c1.03-.59 2.7 1.98 1.96 2.51-.88.63-2.3-1.66-1.96-2.51M316.45 445.35c.79-.6 2.07.24 1.51 1.4-.78 1.6-2.99-.28-1.51-1.4M461.25 404.01l-.1 2.19-.98.19v-.64l-.88-.11c.08-1.05.86-1.83 1.95-1.63ZM568.54 298.9l.66.1.17.26c.02.86.43 3.04-.94 2.91-1.21-.11-.07-1.2 0-1.51.09-.41-.27-1.2.11-1.77ZM504.22 341.65c-.94.21-2.12-.22-2.14-1.27.86.18.95-1.22 1.97-.78.26.2.48 1.86.18 2.05ZM355.45 477.01c1.11 1.43-.08 3.45-1.47 1.78-.22-.81.64-1.78 1.47-1.78M289.18 458.69c-.42.49-1.46.22-1.47-.48-.02-.76.88-.17 1.09-.65-1.33.07-.29-1.64.32-1.64l.54.35c-.45.59-.12 2-.48 2.43Z" class="st0"/><path d="M361.71 455.74c.54-.15 1.24.2 1.06.84-.42.79-1.06 1.37-1.97 1.5-.85-.19.27-2.17.9-2.35ZM516.99 172.78c.18.23.33.48.29.8-.32.29-1.91-.69-1.87-1.19l1.33-2.28c1.43.36-.45 1.75-.32 2.27.1.23.45.26.57.41ZM275.33 475.04c.11 1.3-.07 1.9-1.42 2.1l-.96-.92c-.11-.47 1.86-1.43 2.38-1.18M265.28 398.18c3.37-.02.39 2.98-.49 1.72-.31-.44-.12-1.55.49-1.72M480.32 234.99c-.18.11-.41.04-.61.06-.35-.35.66-1.98.91-2.13.5-.3 2.41.53 1.25 1.36-.65.47-1.12.12-1.31.23-.13.08-.16.43-.25.49ZM302.05 294.12c-.86.06-3.07-.83-2.29-1.97.61-.89 2.67 1.01 2.29 1.97M298.13 441.82l-.46 1.69c-1.17.36-2.13-.49-1.5-1.6.63-.47 1.27-.35 1.95-.09ZM509.71 348.6l.07-.64c2.2-1.16 2.75.18 1.53 1.96l-1.6-1.33ZM465.09 239.46c1.45 1.04-1.01 1.6-1.01 1.78l1.08.65c.34.6-1.13.25-1.41-.33-.46-.95.02-3.05 1.34-2.1M335.23 451.33c-.65-.19-1.5.74-1.59-.5-.18-2.54 3.08-1.47 1.59.5M486.04 245.22c-1.07-1.61 1.57-2.37 2.05-.85.39 1.24-1.18.87-2.05.85M550.04 417.3c.3.53.13.73-.18 1.16-1.83 2.52-3.11-2.03.18-1.16M304.48 302.31l-.15-.37-.65.44c-.91-.76-.39-1.55.42-2.12 1.07.2 1.98 2.18.37 2.06ZM358.54 411.87l.1 1.05-.7.41-.51-.3c.47-.53.31-2.2.47-2.46.03-.04.89-.46.95-.46.44.02.6 1.79-.3 1.77ZM293.98 173.12l-1.47.44c-1.69-4.08 2.17-1.59 1.47-.44M450.82 232.87c-1.54-.29-.47-1.81-.52-2.5-.03-.36-.41-.56-.46-.86-.18-1.08 1.08-.91 1.2-.42.06.25-.41.9-.43 1.31-.02.63.89 1.47.21 2.47M542.04 381.64c-.84.57-2.79-1.13-2.82-1.63-.02-.38.48-.19.6-.18 1.16.06 2.34.44 2.22 1.81M266.85 175.74c-2.49.85-2.38-.88-1.18-2.38-.04 1.28 1.46 1.08 1.18 2.38M541.61 267.62c-.12-.75.06-1.57.75-1.97 1.87-1.07 1.27 2.75-.75 1.97M495.05 361.03l.74.09c.71.35.51 2.05-.14 2.26-1.37.44-1.13-2.17-.59-2.35ZM522.49 159.03c-.85.19-2.39-1.68-1.53-2.3 1.01-.73 2.12 1.36 1.53 2.3M275.98 197.03c.05.54-.5.7-.74 1.1-.41.67-.11 1.3-1.42 1.5l-.65-1.2 2.82-1.41ZM275.6 460.22c-.5-.35.1-1.43.17-1.91.82.09 1.6.49 1.7 1.38-.25.74-1.31.92-1.87.53M507.95 339.73c-.27-1-.66-2.4.73-2.59 1.03.84.63 2.48-.73 2.59M281.14 458.37c1.27 1.82-1.64 1.55-1.8 1.27-.66-1.15.85-1.98 1.8-1.27M315.22 451.4l1.61.06c.75.51-.38 1.95-1.3 1.54-.58-.25-1.03-1.36-.3-1.6ZM311.58 308.26l.14 1.72-1.43.1c-.81-1.22-.17-2.16 1.29-1.83ZM431.78 478.14c.14-.16 1.44-1.11 1.59-1.12.61-.02.62.92.47 1.35-.24.7-2.36.88-2.25.14.05-.13.09-.26.19-.36ZM292.46 328.25l-.06 1.72-1.22.11c-.57-.75-.45-1.57.38-2.04l.9.22ZM266.86 404.45c-.2 1.14.1 2.84-1.52 2.61-.14-1.1.06-2.8 1.52-2.61M499.51 338.67c.32-.19 1.45.21 1.92-.46l-.64 2.07c-1.01.62-1.99-1.17-1.28-1.61M467.98 375.13c.05-1.1.99-.72 1.58-.86.09-.02 1.07-1.46 1.44-.31.45 1.4-2.2 1.19-3.02 1.17M357 444.2c.07 1.12-.54 2.24-1.74 2.39l.32-2.18c.28-.36.99-.18 1.42-.21M440.4 227.88c0-.59-.23-2.1.66-2.07 1.99.07.93 2.46-.66 2.07M308.75 355.61c.18 2.49-2.2 2.37-1.71-.25zM505.91 176.65l1.38.08c1.71 2.2-3.06 1.92-1.38-.08M271.02 293.28c.58-.37 1.98 0 1.5 1.17-.88 2.17-2.37-.62-1.5-1.17M421.72 412.92c1.68.21 2.37 1.3.76 2.39-1.08-.78-.92-1.16-.76-2.39M325.44 263.97c.35-.11 1.27-.15 1.49.16.08 3.24-3.34.4-1.49-.16M530.75 173.14c.11-1.49-2.09-.96-1.74-2.39.59-.05 1.6-.01 1.97.52.26.38.65 2.05-.23 1.86ZM272.08 182.48l1.86.42-.1 1.44c-.83.6-2-1.02-1.75-1.86ZM553.5 424.6c-.44.4-1.54.24-2.12.27-.49-2.55 3.23-1.29 2.12-.27M449.74 428.78c-.56.54-1.22-1.27-1.24-1.66-.03-.51.3-1.07.7-1.38.89-.19.44 2.52.54 3.04M537.7 249.59c.7-.51 1.62 2.85.75 3.04-.27.06-1.09-1.31-1.1-1.4-.06-.4.32-1.18.35-1.64M366.99 455.05c-1.46 0-2.66-2.05-.74-2.17 1.15-.07.65 1.38.74 2.17M267.54 202c-.09-.08-.32-1.27-.15-1.51.58-.8 2.5.23 1.67 1.23-.26.31-1.29.47-1.52.28M539.22 455.27l.44 2.82c-.69.17-.28-.38-.49-.6-.04-.05-1.14-.49-1.18-.54-.58-.65.42-2.04 1.23-1.69ZM473.63 400.98l-1.43-.2c-.51-2.84 1.76-2.45 1.43.2M466.18 269.39c.25-.05.49-.1.72.06l.18.62c-2.05 2.96-3.01-.26-.9-.69ZM271.14 164.73c.65.81-.36 1.83-.91 1.67-.46-.13-.44-2.31-.54-2.82.31.35 1.24.88 1.45 1.15M553.12 260.45c-1.42.5-2.13.33-2.17-1.3 1.11-.46 2.09.09 2.17 1.3M534.88 182.05c.51-.35 1.67 1.54 1.85 1.95.13.3.03.59-.22.65-.68.18-2.38-2.09-1.62-2.6ZM518.59 185.52c1.13-.56 2.23 2.15 1.41 2.39-.88.25-1.61-1.76-1.41-2.39M310.08 346.89c-1.32.42-2.86-1.14-1.24-1.79 1.05-.42 1.13 1.01 1.24 1.79M368.35 210.99c-.09.06 0 .55-.38.38-1.01-.46.42-2.03 1.06-2.16.7.38.88 1.46.07 1.79-.28.11-.6-.12-.75 0ZM353.16 379.83c-.29-.33-.56-.76-.51-1.23 1.58-.17 1.83 1.76 2.6 2.71-.51.73-1.08-.65-1.4-.99-.21-.22-.54-.32-.69-.5ZM358.95 378.39c.16 1.2-.13 2.3-1.52 2.17l.32-1.96zM498.8 284.8l.36 1.5-1.4.4c-.74-1.11-.32-2 1.04-1.91ZM265.49 360.83l1.34.5-.76 1.41c-1.07-.04-1.7-1.37-.58-1.91M521.6 271.12c.46.73-1.04 3.4-1.46 1.33-.29-1.43 1.09-1.92 1.46-1.33M286.87 173.55l-.46-1.49c.81-.27 1.71-.48 1.96.55.07.84-.8 1.13-1.5.94M224.44 306.53c.2-.06.39-.07.59-.02l.34.53c-.76.41-.39 1-.62 1.53-.8 1.83-1.52-1.7-.31-2.04M272.02 371.49c.3.31.27 1.05.27 1.47h-1.74c-.06-.77-.08-1.78.93-1.7.18.06.41.1.54.24ZM274.68 229.61c1.86-.25 1.13 3.57-.02 2.08-.48-.62-.02-1.4.02-2.08M524.45 172.27c1.18-.17 1.82-.24 2.39.98-.03.46-1.58.25-1.94.22zM408.94 219.37c-.39-.25-.33-1.55.56-1.66 1.83-.23.86 2.57-.56 1.66M386.73 148.8c-.29.41-1.68-.05-2.15.02-.36-2.11 2.97-1.19 2.15-.02M250.58 329.08l-.44-2.16c2.81-1.18.99 2.67.44 2.16M392.54 146.45c.78-.14 2.12 1.18 1.16 1.61-1.02.46-2.44-.8-1.16-1.61M548.12 343.85c-.21.88.65 1.94-.11 2.6-1.12-.68-1.7-2.8.11-2.6M545.03 415.79c.41.54 0 1.13-.52 1.44-2.02-.62-1.69-2.4.52-1.44M295.04 454.43c.55-.16 1.06.16 1.14.72-.07.61-.54 1.12-1.17 1.18-.65-.39-.84-1.66.02-1.91ZM517.24 445.89c-.6.41-1.17.58-1.91.47-.19-1.28.53-1.82 1.75-1.42zM319.58 452.39c-1.21 1.02-2.03-.54-1-1.65.61-.35 1.78.99 1 1.65M529.39 194.15c-.16.14-.97.37-1.15.07l.1-1.65c1.28-.69 1.75.98 1.05 1.59ZM410.21 145.56c.24 1.24-2.19.66-3.04.87-.09-1.47 2.14-.89 3.04-.87M333.49 175.26c-.65.64-1.86.08-1.9-.81.95-.86 3.07-.36 1.9.81M302.84 295.88c1.35-.45 1.4 2.16.84 2.14l-1.38-1.22c-.05-.26.28-.84.55-.93ZM491.19 447.05c.68.99-.8 1.76-1.7 1.7-.07-1.23.36-2.08 1.7-1.7M436.71 438.98l.09-1.75c2.15-.9 1.78 1.75-.09 1.75M424.98 311.27c-.34-.36 1.52-2.56 2.07-1.74.92 1.38-1.28 1.36-2.07 1.74M542.04 466.14c-.14.85 1.03.15 1.33.56.48.65.04.96-.38 1.4-1.05-.16-1.52-.81-1.38-1.86l.43-.11ZM441.27 170.32l.22-.87-.65.87c-1.42-1.72.51-2.25 1.73-.98-.32.53-.55 1.1-1.29.98ZM359.98 168.52c-.85.87-2.07-1.04-1.03-1.58.75-.39 1.74.86 1.03 1.58M512.07 187.91l1.43.2c.62 2.33-1.84 1.92-1.43-.2M500.53 291.32c.92 3.42-.99 2.7-1.06-.03zM472.65 403.41c.95.07.59 2.2-.65 2.13-.81-.49-.05-2.18.65-2.13M542.3 451.11c-.19-.11-1.2-1.32-.9-1.69 2.1-.81 2.23 2.45.9 1.69M345.7 369.7c.95-.27 2.5.63 1.42 1.54-.69.59-1.77-.72-1.42-1.54M362.43 392.5c-.39.34-2.47-.9-2.17-1.74 1.25-.16 2.07.48 2.17 1.74M263.82 357.75c.36-1.33 2-2.04 2.38-.32-.04.52-1.92.28-2.38.32M495.35 261.76c.1.88-.7.38-.82.46-.54.36-1.21 2.52-1.78-.24l2.61-.22ZM534.65 310.2v1.08l-.98-.21.12-.65c-.87-.16-.03 1.56-1.1.77a.56.56 0 0 1-.17-.26c-.09-.29-.03-.64-.04-.94l2.16.23ZM350.26 232.44c.47-.03 1.1-.42 1.55-.32 1.85.4-1.4 2.8-1.55.32M250.14 273.27c-.8.17-1.48.09-2.3.2-.43.06-.31-.03-.31-.41 1-.04 1.28-.63 1.85-1.3.45.38.82.89.76 1.51M488.4 294.55l-.04.83-2.35 1.34c-.13-.93.49-1.07.98-1.52s.23-.89 1.41-.65M496.98 356.02c1.24.43 1.19 1.45.19 2.16-1.08-.24-.8-1.5-.19-2.16M264.86 256.15l.22.51c-.06.47-1.86 1.15-2.09.17-.31-1.3 1.08-.88 1.88-.67ZM448.58 404.92c.3-.03.56.23.5.51-2.55 3.16-2.88-.29-.5-.51M270.12 191.6l1.86.42c.34.45-.07 1.29-.63 1.29-.56-.05-1.32-1.11-1.23-1.7ZM552.53 421.33c-.19-.18-.49-.87-.34-1.18 1.97-1.95 1.82 2.59.34 1.18M255.27 279.43c-.2-.2-.6-.21-.59-.62.87-2.15 2.64 1.21 1.2 1.2-.43 0-.41-.37-.62-.58ZM255.57 266.32l-.25 1.71-1.27.03c.05-1.1.26-2.05 1.52-1.74M333.32 230.48c2.16-.3 1.78 1.18.32 1.95-.4-.02-.25-1.66-.32-1.95M341.83 174.41l-.03-1.7 1.11.1.1 1.64c-.26.39-.85.11-1.17-.04ZM245.58 280.65l-.24 1.71h-1.04c-.16-.59-.33-1.12 0-1.68l1.27-.03ZM466.24 410.75c1.42-.11 2.31 1 .95 1.94-.66.12-.96-1.46-.95-1.94M267.73 155.55l-1.86-.63c-.15-2.23 1.81-1.2 1.86.63M289.4 359.87l-1.23.25c-.28-.59-.3-1.13.19-1.62.91-.56 1.5.68 1.04 1.36ZM310.77 316.96l.93-.46c1.98 1.78-.83 2.94-.93.46M489.4 345.45c.08.1.35.54.3.58l-1.74-.32c-.85-.73.54-2.36 1-1.05.04.12-.1.35 0 .51.07.13.35.17.44.28M494.97 355.31c-.87-.72.62-2.13 1.36-1.04.65.96-.5 1.75-1.36 1.04M303.13 266.97c.2.62-.41 1.45-1.01 1.5s-1.24-1.52-.37-1.7c.28-.06.87.57 1.39.2ZM244.06 328.43c0-.43-.08-.89.11-1.3.74-1.57 2.82 1.51-.11 1.3M471.81 228.33c1.59-.5 1.67 2.91.19 1.51-.39-.36-.88-1.29-.19-1.51M395.08 283.62c.21.15.71.1.78.42l-.21.73c-.34.25-2.18-.77-1.95-1.51l.95-.2c.23.07.26.45.42.56ZM500.94 314.26c-.92.95-1.54-.82-1.25-1.68l1.42.65c.16.3.05.8-.18 1.03ZM508.38 184.87c-.94.05-1.85-.8-1.95-1.74 1.18 0 2.21.35 1.95 1.74M474.06 391.64l-.1 1.53c-1.88.78-1.89-1.84.1-1.53M515.48 189.69c1.14-.34 1.61.63.71 1.38l-1.52-.45c-.06-.28.56-.86.8-.93ZM360.02 465.93l.35.85.11-.65 1.08.55c-1.4 1.45-1.99 1.39-2.17-.76l.63.02ZM418.02 437.9l-.86.65c-.32-.55.15-1.39.65-1.64.63-.32 1.61 1.16.76 1.64l-.54-.65ZM525.23 202.26c.67-.11 1.57 1.96-.04 1.94-.88-.01-.62-1.83.04-1.94M542.45 438.09l-1.35.22c-1.57-.51 1.75-2.98 1.35-.22M351.9 444.85l1.39.79-.43.85c-1.14.18-1.82-.78-.97-1.64ZM327.49 264.33c-1.08-2.91 2.42-.82 1.28-.07zM283.09 177.12c.47.4.67 1.23.15 1.68-1.24.21-1.51-1.79-.83-1.97.25.03.49.12.68.28ZM308.09 337.73c-.03.06-1.05.82-1.15.47-.37-.24-.36-1.9 0-1.96.57.17 1.55.79 1.15 1.48ZM282.72 447.67c2.43-.44 1.31 2.54.32 1.52zM357.18 463.12c.81 1.29-1.64 1.88-1.63.51 0-.93 1.4-.88 1.63-.51M441.89 409.68c.52 1.15-.66 1.67-1.62 1.07l.16-1.06h1.46ZM357.4 448.14c.51 1.16.39 1.92-1.05 1.71v-1.74zM244.93 331.26h-2.17l.03-.73c.25-.75 2.48-.36 2.14.73M342.06 434.59c-1.01-1.1.49-2.15 1.47-.92l-.86 1.08c-.18.08-.49-.05-.6-.17ZM259.7 344.29c.1 1.48-2.05 1.52-2.18.11.61-.53 1.44.02 2.18-.11M535.96 447.24c-1.11.02-1.24-1.61-2.39-1.31v-.86c.75-.48 2.69 1.87 2.39 2.17M287.48 176.6c-.22.13-.95.05-1.18-.19l-.31-1.3c.88-.66 2.13 1.11 1.49 1.49M447.57 452.45c.89-.02 1.82.19 1.95 1.19-.17.81-2.48-.19-1.95-1.19M267.19 250.68c.78-.16 2.06 1.22 1.41 1.63-.83.54-1.31-.52-1.53-1.09-.09-.22-.33-.45.12-.55ZM481.12 260.89c1.55.73 2.08 2.32-.23 1.53zM293.99 448.95l-1.49.67c-.27-1.06 0-2.15 1.32-1.64l.18.97ZM386.54 412.05c.69-.08 2.07.12 1.63 1.09-.76.79-1.99.09-1.63-1.09M351.35 217.24c.16.79-.63 1.02-1.2 1.21-.79-.07-.85-.84-.33-1.33l1.52.12ZM273.81 174.23c.18 1.15 2.07 1.25 1.74 2.39-.55.56-2.29-1.61-2.17-2.28zM490.13 445.93l-2.82-.76c.24-.55 2.65-.24 2.72-.12zM538.24 264.36c1.39-.37.46 2.53-.22 2.39-.76-.16.02-1.06.06-1.25.06-.3-.37-1 .16-1.14M484.7 378.17c.08 1.29-.47 1.71-1.74 1.52-.26-1.04.88-1.38 1.74-1.52M474.93 369.7c-.47 1.33-.81 1.95-2.39 1.73.77-.63 1.2-1.81 2.39-1.73M420.45 327.53c-.85-1.34 1.93-1.95 1.45-.34-.19.65-1.22.7-1.45.34M548.1 369.68c-.69.46-1.84-.87-1.08-1.4 1.17-.81 1.7.98 1.08 1.4M387.84 292.16l-.09 1.52-.98.2-.13-1.51c.37-.41.72-.37 1.21-.21ZM524.45 201.16c.03-.87-.61-2.25.73-1.93.8.66.37 1.94-.73 1.93M504.25 448.11c.08.96-.01 1.55-1.1 1.21-1.55-.49-.14-1.64 1.1-1.21M343.07 390.79c1.11 1.32-3.12 1.54-1.14-.43zM312.69 450.49c-.33.45-1.11-.14-1.2-.14-.22 0-.37.49-.76.36-.21-.21.69-1.53 1.2-1.53s.93 1.08.75 1.31ZM461.68 236.78c1.22-.01 2.17 1.06.98 1.95-.61-.52-1.09-1.09-.98-1.95M483.15 396.23c.34.21.13 1.48-.3 1.7-.31-.41-1.31-.79-1.19-1.39.08-.39 1.24-.46 1.49-.31M503.38 363.62c-.68-.05-1.3-.32-1.5-1.02l.96-1.15zM451.11 214.78c-.25-.32-.32-.71-.27-1.1l.52-.35c1.5.79.92 2.93-.25 1.45M521.63 213.76c-1.25.08-1.14-1.05-1.08-1.95l.99.2zM445.17 240.25c-1.24.1-1.79-1.04-.97-1.95.53-.11 1.2 1.48.97 1.95M343.72 440.1l-.17 1.18c-.52.26-1.03-.03-1.53-.13.36-.74.8-1.61 1.71-1.05ZM549.86 268.05c-.4-.03-.83.58-1.2.25-1.09-.96.8-3.03 1.2-.25M448.22 463.09c0 .29-.55.66.11.65.27 0-.18-.88.54-.65.14.94.33 1.53-.54 2.17-.35 0-1.1-2.29-.11-2.17M491 318.44c.37 0 .79-.06 1.15.05 1.79.53-1.57 2.53-1.15-.05M463.63 379.69c-.65-.15-.61-.7-1.52-.43.16-1.9 2.24-1.31 1.52.43M437.77 161.22c.11.07.32 1.16.23 1.27l-1.28.22c-.66-.82.37-1.95 1.05-1.49M538.57 430.51v1.31c-1.01.13-1.66-.21-1.52-1.3h1.52ZM444.58 170.7c-.34-.36-.27-1.21-.27-1.68 1.05.09 1.38.79 1.2 1.74-.2.34-.74.15-.93-.06M547.41 412.29c.97-.24 1.34 1.39.17 1.5-1.1.1-.89-1.33-.17-1.5M290.1 175.75l-1.21-.2.11-1.23c1.2-.43 1.18.51 1.1 1.43M440.59 406.86c.46.31.31 2.11-.85 1.4-1-.62.17-1.85.85-1.4M257.09 375.56l-.87-.33.43-.22-.76-.77-.55.15-.43.72v-1.3c1.33-.24 2.02.48 2.17 1.74ZM292.87 340c.35.38.27 1.19.28 1.68h-1.09v-1.95c.09-.1.7.16.81.27M338.53 365.14c-.99.06-1.46-.82-1.3-1.74l1.2.43.11 1.3ZM513.59 185.74c-.9.02-1.69-.54-1.52-1.52 1.1-.07 1.72.35 1.52 1.52M528.36 222.66l.11.88-1.31 1.07c-.67.02.07-2.46 1.19-1.95ZM273.76 186.45c.26.22.28.9.27 1.25h-1.29l-.12-1.3c.17-.32.99-.08 1.14.06ZM343.1 222.01c.13 1.31-.48 1.39-1.52 1.74-.2-1.09.46-1.75 1.52-1.74M478.55 384.3c.62-.05 1.35.73.73 1.15-.36.2-1.39.2-1.52-.22-.12-.49.38-.89.79-.93M301.39 286.73c-.57.31-.92-.13-1.41-.41-.21-.12-.58.04-.32-.56.19-.43.94-.42 1.3-.22zM310.3 370.35c-.25-1.02 1.45-1.5 1.71-.51.28 1.08-1.18.6-1.71.51M511.44 175.73c-.52-.32-.21-2.16.86-1.4.65.46 0 1.93-.86 1.4M276.42 232.87c1.06-.13 1.3.4 1.37 1.35.01.15.19.62-.18.6-.18 0-1.58-1.45-1.19-1.95M500.3 326.53c.29.17.68 1.7.47 1.91-1.29.33-1.6-2.55-.47-1.91M307.26 285.21c-.53.07-.34 0-.46-.3-.39-1.01-.02-1.57.24-2.52.97.6.08 1.93.21 2.82ZM530.93 209.23c.69.43-.15 1.9-.91 1.29-.83-.67.03-1.85.91-1.29M431.65 315.46c.39.35.2 1.47-.06 1.47-1.17-.19-.85-.94-.97-1.85.19 0 .95.31 1.02.38ZM502.73 443.54l.58-1.06 1.58.09c-.35.92-1.3.92-2.17.98ZM535.31 243.29l-1.73-.22c.02-2.04 1.29-1.16 1.73.22M258.96 259.38c.48-.15.95.13 1.15.57l-.55.92c-.59-.03-1.43-1.23-.6-1.49M471.46 246.99c.82.54 1.62 1.9.54 2.6zM482.65 353.63c1.02-.34.95 1.57.2 1.73s-.86-1.51-.2-1.73M500.09 334.92l-1.27.46-.18-.96c.67-.85 1.73-.77 1.45.5M487.09 349.07c.13.81-.14 1.26-.76 1.73-1.1-.86-.43-1.77.76-1.73M376.08 409.85c-.25.16-1.17.04-1.27-.3l.76-1.18c.47.22 1.03 1.16.51 1.48M487.31 251.55c.37-.45 1.57 2 .76 2.17-.93-.24-.76-1.44-.76-2.17M486.88 248.29c1.64.29 1.31 2.72-.2 1.16zM282.05 174.9l.23 1.5c-.73.12-1.06-.57-1.52-.98.32-.44.73-.67 1.28-.52ZM502.07 332.57s.32 1.01.02 1.19-1.01.19-1.22-.11c-.5-.71.83-1.39 1.19-1.08ZM314.32 252.42c1.16.6 1.47 1.28 0 1.72-.41-.03-.52-1.49 0-1.72M448.22 230.92c-2.43-.28.77-2.99.39-1.25-.07.31-.57.73-.39 1.25M423.19 296.55c.2.35.04 1.39-.49 1.26-.99-.92-1.11-2.37.49-1.26M441.48 449.19l.02-1.07c.3-.27 1.71-.02 1.71.3-.45.55-1.01.84-1.73.76ZM491 339.51l-.56 1.3c-.61.18-1.34-.8-.75-1.19l1.31-.1ZM507.08 258.93l-.1 1.1-.97.18-.24-1.28zM533.79 237.21c.09.39.53 2.14-.32 1.95-1.04-.23-.18-2.41.32-1.95M458.58 403.53c-.28.27-.87.28-1.25.27l.24-1.28c.81-.28 1.75.28 1.01 1.01M524.18 198.18c.12.11.38.71.27.81-2.92.43-1.53-1.98-.27-.81M441.04 476.79v1.29c-.98.17-1.1-.36-1.29-1.19l.45-.24zM439.74 474.17c.08.55.22.98 0 1.52l-1.06-.24c-.17-.75.26-1.39 1.06-1.28M476.23 176.84l.44 1.19-.95.31c-.91-.57-.36-1.35.51-1.49ZM498.57 176.87l.25 1.05c-1.79.7-2.08-1.48-.25-1.05M261.22 182.92c-.73.21-1.28-.34-1.21-1.09l1-.33zM310.95 347.55c-.17.95 1.19.77.87 1.95-.45.46-2.39-1.95-.87-1.95M278.38 183.13v1.09c-.77.13-1.81-.19-1.41-1.09zM244.71 303.24l-1.31-.1c-.68-1.59 1.4-1.32 1.31.1M490.14 239.39l-.13-.88c2.3-1.37 1.97.44.13.88M274.03 242.42l.22-1.3-.65.87c-1.15.07.15-1.32.55-1.29.64.65 1.33 1.77-.11 1.72ZM446.26 384.47h-.87c.58 1.5-1.15 1.43-.36-.03.45-.83 1.19-1.35 1.23.03M334.31 225.05c.92-.17 1.35 1.35.4 1.51-.69.11-1.04-1.39-.4-1.51M402.83 404.02c.37-.02.73-.05 1.08.11 1.38.63-1.31 2.13-1.08-.11M398.94 432.06c.33-.53 1.87-.12 1.18.86-.48.68-1.64-.13-1.18-.86M475.15 387.07l.22 1.52-1.1-.31c-.54-.64.17-1.33.89-1.21ZM338.7 212.29c1.18 1.19-1.29 1.99-1.03-.27.31-.01.81.05 1.03.27M417.38 402.28c-1.21.47-1.8-.2-.97-1.3.4-.07 1.15.86.97 1.3M536.18 210.72l-.65-1.52c2.26-.84 1.02 1.82.65 1.52M246.45 190.73l-1.09-.1-.01-.89.89-.21zM309.18 342.8c.51.82-.82 1.38-1.17.85-.67-1 .84-1.38 1.17-.85M358.52 403.36c-.95-.04-1.93-.37-1.74-1.52.15-.17 2.06 1.22 1.74 1.52M486.88 347.11h-.65v-.87h-.65l-.22.65v-1.3c.94-.14 1.66.58 1.52 1.52M523.36 202.9l-.43-1.08-.54.65-.54-.76c1.19-.92 1.74-.02 1.51 1.19M477.67 446.06c.14-.13.02-.38.19-.35.7.29.09 2.17-.22 2.17-.58-.91-.65-1.2.02-1.82ZM292.69 278.5l.02.63-1.09-.22-.43.87.17-.83-.37-.05.19-.54zM331.61 248.74c.37-.5 1.25.06 1.5.52-.59 1.14-2.07.26-1.5-.52M540.3 365.57c.39 2.24-2.23 1.15-.95.24.27-.19.63-.27.95-.24M488.39 179.22l-.42.1.2.56c-.54.06-1.05-.03-1.26-.57l.31-.74c.51-.05.99.17 1.17.66ZM265.56 363.62l-.02 1.28-1.28.24c.28-.73.25-1.65 1.3-1.52M537.7 453.97c-.82-.14-.04 1.25-.97.87-1.11-.46-.37-2.42.97-.87M263.39 428.78c.05.59.09 1.44-.75 1.3l-.55-1.3zM548.96 438.8l.23 1.25-.72.23c-.48-.11-.35-1.1-.35-1.51zM563.98 430.95c.08.81.1 1.37-.87 1.21l-.43-.88c.3-.45.84-.34 1.3-.33M499.91 296.72h-.87l.22-1.96c.73.36.68 1.27.65 1.96M527.49 446.58c-.09-.54.11-1.23.75-1.3l.55.97c-.3.45-.84.34-1.3.33M515.74 175.08c-.49.79-1.77-.47-.74-1.28.49-.09.98.9.74 1.28M498.17 283.04c-.98.1-1.19-.69-1.08-1.52.91-.16 1.13.78 1.08 1.52M421.72 322.57l.43-1.2c.42-.2.8-.2 1.09.22-.46.41-.79 1.1-1.51.98ZM459.94 466.13l-.1 1.31c-.36.54-.97 0-1.2-.33zM542.48 464.18l1.2-1.03.76.71-.32.53c-.5-.54-1-.22-1.63-.21ZM351.07 402.77c.61.52-.04 1.42-.81 1.25l-.22-1.52c.05-.05.9.17 1.02.27ZM266.65 157.51c-.36 1.29-1.98 1.25-1.74-.22.72.28.91.49 1.74.22M269.47 460.05c-.17-.34.29-1.94.76-1.73.93.4-.44 2.09-.76 1.73M546.37 263.72c-.06.71.58.98.88 1.51l-1.65-.65.14-.86zM289.67 452.88c.62.63-1.75 2.52-1.07.01h1.07ZM466.88 395.56l-.02 1.04-1.05.25c.16-.52.3-.83-.21-1.19.32-.53.77-.02 1.28-.1M442.78 468.52l.13 1.32-.99.2c-.11-.31.38-1.87.87-1.52ZM454.95 387.73c-.35.78-1.42.82-2.17.87.1-1.04 1.43-.88 2.17-.87M451.69 454.18l-.43-1.09-.43.22.54-1.09c.8-.16.54 1.53.32 1.95ZM355.91 170.53l-1.52.01v-.87l1.31.1zM400.43 146.21c-.38.38-.68-.46-.97-.46-.42 0-.79.2-1.2.24v-.65l1.81.03c.37.05.47.72.36.83ZM554.72 436.07c.42.38.72.38.57 1.18-.93.16-1.56-.49-.97-1.29.38-.52.26-.02.41.12ZM548.76 425.76l-.42-.24 1.21.2-.23 1.1-.74-.34zM386.1 401.84c-.54.05-1.46-.27-1.3-.97.15-.67 1.77.11 1.3.97M282.28 319.53v1.09l-1.06-.03v-1.04zM503.35 439.01c.18.65-.05 1.49-.84 1.49.05-.59.39-1-.21-1.41l.5-.29zM349.18 385.12c-.33.02-.64.26-.98.23-1.39-.11.52-2.22.98-.23M338.54 241.78l.21.43.44-.43-.57 1.28-.69-.56zM425.36 409.61c-.11.12-1.18.33-1.25.27.07-1.73 2.28-1.37 1.25-.27M499.36 260.46c1.08 1.04-1.23 2.54-.72.8.09-.31.51-.55.72-.8M520.54 443.55l-.03.84c-1.76.7-1.74-1.15.03-.84M344.07 392.51c1.07.8-1.26 1.43-1.41.75-.17-.78 1.24-.21 1.41-.75M300.74 452.23l-1.08.44.22-.65-.87-.43c.59-.23 1.7-.22 1.74.65ZM510.47 182.71l.94.75-.98.47-.51-.66zM482.35 240.44l-.03-1.05c.79-.17.85.56 1.3.98-.34.53-.81.27-1.27.07M486.44 376.65l-.67-.13-.2-1.39.77.21zM409.28 310.13c-.16.21-2.14 1.35-2.45 1.37-1.37.07-1.65-3.61-1.05-4.55 1.84-2.94 5.03 1.12 3.51 3.18ZM408.3 302.2c.08-.15.83-.49 1.09-.45 1.33.17 1.24 2.13.26 2.8-.89-.32-1.92-1.36-1.35-2.34ZM403.04 307.15l.23-2.6c2.36-.2 1.93 2.84-.23 2.6M404.57 300.43c.73.23 1.12-.66 1.19-.67 1.6-.22.1 3.08-1 1.66zM389.79 311.06c-.35.75.63 1.64.61 2.03-.04.8-1.41 1.33-1.35.19.03-.5.18-1.4.3-1.89.08-.33-.15-.38.43-.33ZM396.74 299.11c.06 1.03-.33 1.58-1.3 1.95l.32-1.74zM416.07 309.54l-.19-1.83.62-1.21zM640.01 319.04s-2.21-1.09-1.35-12.17c.26-3.52.71-5.69-3.26-5.69-3.18 0-3.41 2.81-3.41 6.36 0 8.5.94 10.56.94 10.56s-4.83-.67-8.87-.04c0 0 .38-1.35.38-9.36 0-2.73.3-4.75-3.67-4.53-3.86.23-3.33 2.28-3.33 4.94 0 5.32.56 9.66.56 9.66s-2.51-.26-5.28 0c0 0 .45-5.65.56-11.42.11-6.48-.82-11.34-.82-11.34 8.76 2.17 15.98 2.02 30.02.22 9.28-1.2 10.56 4.16 9.73 12.05-.94 9.28.71 10.78.71 10.78s-9.25-.6-12.91-.04ZM409.05 111.14s-2.21-1.09-1.35-12.17c.26-3.52.71-5.69-3.26-5.69-3.18 0-3.41 2.81-3.41 6.36 0 8.5.94 10.56.94 10.56s-4.83-.67-8.87-.04c0 0 .38-1.35.38-9.36 0-2.73.3-4.75-3.67-4.53-3.86.23-3.33 2.28-3.33 4.94 0 5.32.56 9.66.56 9.66s-2.51-.26-5.28 0c0 0 .45-5.65.56-11.42.11-6.48-.82-11.34-.82-11.34 8.76 2.17 15.98 2.02 30.02.22 9.28-1.2 10.56 4.16 9.73 12.05-.94 9.28.71 10.78.71 10.78s-9.25-.6-12.91-.04Z" class="st0"/></svg>